<?xml version="1.0" standalone="no"?>
<!DOCTYPE svg PUBLIC "-//W3C//DTD SVG 20010904//EN"
 "http://www.w3.org/TR/2001/REC-SVG-20010904/DTD/svg10.dtd">
<svg version="1.0" xmlns="http://www.w3.org/2000/svg"
 width="287.000000pt" height="287.000000pt" viewBox="0 0 287.000000 287.000000"
 preserveAspectRatio="xMidYMid meet">
<metadata>
Created by potrace 1.11, written by Peter Selinger 2001-2013
</metadata>
<g transform="translate(0.000000,287.000000) scale(0.100000,-0.100000)"
fill="#000000" stroke="none">
<path d="M864 2785 c-3 -8 -3 -18 0 -23 8 -13 -18 -22 -65 -22 -28 0 -39 -4
-39 -15 0 -9 -11 -20 -25 -25 -14 -5 -25 -17 -25 -25 0 -9 -4 -14 -9 -10 -6 3
-18 -3 -28 -13 -10 -10 -25 -21 -34 -24 -23 -9 -39 -97 -39 -218 0 -135 14
-210 40 -210 10 0 20 -9 23 -21 3 -11 15 -23 26 -26 12 -3 21 -11 21 -19 0 -7
11 -16 25 -20 27 -7 29 -28 4 -30 -8 0 -132 -2 -276 -2 l-263 -2 0 -24 c0 -17
-7 -26 -24 -30 -13 -3 -26 -16 -30 -28 -9 -34 -7 -636 2 -642 4 -2 29 -7 56
-10 57 -7 67 -12 59 -31 -3 -9 1 -15 11 -15 14 0 16 -50 16 -527 0 -550 4
-633 26 -633 7 0 18 -9 24 -20 11 -20 21 -20 1090 -20 1068 0 1080 0 1097 20
10 11 25 20 35 20 10 0 18 9 20 22 2 13 11 24 23 27 11 2 23 8 27 15 4 6 8
261 8 566 0 305 4 561 8 567 4 7 18 11 30 8 66 -12 72 16 72 345 0 215 -3 280
-13 288 -7 6 -14 28 -15 49 -2 21 -6 41 -10 45 -4 4 -138 9 -297 10 -228 2
-289 6 -293 16 -2 7 5 16 16 19 11 2 22 13 25 24 3 13 14 19 31 19 19 0 26 5
26 20 0 10 8 24 18 29 12 7 22 31 30 74 15 82 15 142 0 242 -10 64 -17 85 -39
108 -15 15 -35 27 -44 27 -9 0 -19 9 -22 20 -3 11 -11 20 -19 20 -7 0 -18 9
-24 20 -8 14 -21 20 -48 20 -44 0 -58 8 -63 35 -4 18 -12 20 -79 20 -70 0 -75
-2 -78 -22 -3 -19 -12 -24 -54 -29 -37 -5 -52 -12 -55 -25 -3 -11 -14 -19 -24
-19 -11 0 -19 -7 -19 -15 0 -9 -11 -20 -25 -25 -14 -5 -25 -14 -25 -20 0 -6
-11 -15 -25 -20 -22 -9 -32 -31 -26 -63 1 -5 -8 -11 -19 -14 -13 -3 -20 -14
-20 -28 0 -12 -7 -45 -16 -73 -12 -38 -22 -52 -38 -54 -18 -3 -22 -11 -24 -52
-3 -38 -7 -49 -23 -53 -10 -3 -19 -14 -19 -24 0 -18 -17 -35 -26 -26 -8 8 -12
37 -13 90 -1 43 -3 47 -26 47 -19 0 -25 5 -25 23 0 12 -7 31 -15 41 -8 11 -15
37 -15 58 0 27 -5 40 -20 48 -11 6 -20 17 -20 24 0 8 -9 16 -21 19 -12 3 -18
10 -15 15 8 14 -24 54 -39 48 -8 -3 -17 6 -23 24 -7 20 -19 30 -41 35 -17 4
-31 12 -31 20 0 7 -12 16 -26 19 -16 4 -24 12 -21 20 10 27 -17 36 -105 36
-68 0 -90 -3 -94 -15z m204 -235 c14 -19 22 -44 22 -70 0 -34 4 -42 25 -50 18
-7 25 -17 25 -35 0 -15 6 -25 14 -25 9 0 16 -17 21 -46 9 -61 14 -74 30 -74
16 0 22 -16 31 -94 7 -65 0 -76 -51 -76 -45 0 -75 11 -75 26 0 8 -9 14 -20 14
-10 0 -24 9 -30 20 -7 13 -21 20 -41 20 -22 0 -32 5 -36 20 -3 12 -14 20 -27
21 -30 1 -79 31 -91 56 -5 12 -17 24 -26 26 -12 3 -20 20 -24 51 -6 36 -11 46
-26 46 -14 0 -19 7 -19 30 0 22 4 28 15 24 17 -7 35 31 35 73 0 16 7 27 19 30
11 3 21 13 24 24 5 17 15 19 94 19 87 0 90 -1 111 -30z m946 -2 c9 -17 16 -37
16 -45 0 -7 7 -13 15 -13 23 0 36 -67 25 -135 -5 -33 -10 -61 -10 -62 0 -2 -9
-3 -20 -3 -12 0 -22 -9 -25 -23 -6 -22 -63 -57 -94 -57 -6 0 -16 -11 -21 -25
-5 -14 -16 -25 -24 -25 -7 0 -16 -10 -19 -22 -4 -12 -9 -19 -12 -16 -9 9 -86
-11 -102 -27 -15 -16 -128 -22 -136 -7 -9 16 5 80 17 76 13 -5 36 49 36 84 0
12 9 26 20 32 15 8 20 21 20 50 0 29 5 42 19 50 11 5 21 20 23 32 2 14 12 24
28 28 19 4 27 15 35 48 16 66 54 92 131 92 60 0 63 -1 78 -32z m611 -843 l0
-150 -542 -3 -543 -2 0 144 c0 79 2 150 5 158 4 11 101 12 543 8 l537 -5 0
-150z m-1295 0 l0 -155 -515 0 -515 0 0 155 0 155 515 0 515 0 0 -155z m-15
-361 c13 -5 15 -69 15 -525 l0 -519 -452 2 -453 3 -3 500 c-1 275 0 510 3 522
l5 23 435 0 c239 0 441 -3 450 -6z m1108 -1 l27 -5 0 -519 0 -519 -452 2 -453
3 -3 500 c-1 275 0 510 3 522 l5 23 423 -1 c232 0 434 -3 450 -6z"/>
</g>
</svg>
