<svg width="26" height="26" viewBox="0 0 26 26" fill="none" xmlns="http://www.w3.org/2000/svg">
<path d="M9.71177 19.4993C9.44893 21.3368 7.86867 22.7493 5.9585 22.7493C4.04832 22.7493 2.46806 21.3368 2.20522 19.4993H1.0835V6.49935C1.0835 5.90105 1.56853 5.41602 2.16683 5.41602H17.3335C17.9318 5.41602 18.4168 5.90105 18.4168 6.49935V8.66602H21.6668L24.9168 13.0597V19.4993H22.7118C22.4489 21.3368 20.8686 22.7493 18.9585 22.7493C17.0484 22.7493 15.4681 21.3368 15.2052 19.4993H9.71177ZM16.2502 7.58268H3.25016V16.3041C3.93836 15.6017 4.89754 15.166 5.9585 15.166C7.47105 15.166 8.77673 16.0516 9.38527 17.3327H15.5317C15.7134 16.9503 15.9572 16.6029 16.2502 16.3041V7.58268ZM18.4168 14.0827H22.7502V13.7739L20.5745 10.8327H18.4168V14.0827ZM18.9585 20.5827C19.666 20.5827 20.2679 20.1305 20.491 19.4993C20.5509 19.3299 20.5835 19.1476 20.5835 18.9577C20.5835 18.0602 19.8559 17.3327 18.9585 17.3327C18.0611 17.3327 17.3335 18.0602 17.3335 18.9577C17.3335 19.1476 17.3661 19.3299 17.426 19.4993C17.6491 20.1305 18.251 20.5827 18.9585 20.5827ZM7.5835 18.9577C7.5835 18.0602 6.85596 17.3327 5.9585 17.3327C5.06103 17.3327 4.3335 18.0602 4.3335 18.9577C4.3335 19.1476 4.36608 19.3299 4.42596 19.4993C4.64904 20.1305 5.25096 20.5827 5.9585 20.5827C6.66603 20.5827 7.26795 20.1305 7.49103 19.4993C7.55091 19.3299 7.5835 19.1476 7.5835 18.9577Z" fill="#2B48F1"/>
</svg>
