<svg width="26" height="26" viewBox="0 0 26 26" fill="none" xmlns="http://www.w3.org/2000/svg">
<path d="M12.9996 1.08398L6.49984 11.9173H19.4998L12.9996 1.08398ZM12.9996 5.29523L15.6731 9.75065H10.3265L12.9996 5.29523ZM7.31234 21.6673C5.66699 21.6673 4.33317 20.3335 4.33317 18.6882C4.33317 17.0428 5.66699 15.709 7.31234 15.709C8.95768 15.709 10.2915 17.0428 10.2915 18.6882C10.2915 20.3335 8.95768 21.6673 7.31234 21.6673ZM7.31234 23.834C10.1543 23.834 12.4582 21.5302 12.4582 18.6882C12.4582 15.8461 10.1543 13.5423 7.31234 13.5423C4.47037 13.5423 2.1665 15.8461 2.1665 18.6882C2.1665 21.5302 4.47037 23.834 7.31234 23.834ZM16.2498 16.7923V21.1257H20.5832V16.7923H16.2498ZM14.0832 23.2923V14.6257H22.7498V23.2923H14.0832Z" fill="#2B48F1"/>
</svg>
