<svg width="26" height="26" viewBox="0 0 26 26" fill="none" xmlns="http://www.w3.org/2000/svg">
<path d="M7.63777 15.2971L5.33967 17.5953L8.4038 20.6594L20.6603 8.40287L17.5962 5.33873L15.2981 7.63683L16.8301 9.1689L15.2981 10.701L13.7661 9.1689L12.234 10.701L13.7661 12.233L12.234 13.7651L10.7019 12.233L9.16984 13.7651L10.7019 15.2971L9.16984 16.8292L7.63777 15.2971ZM18.3622 3.04064L22.9585 7.63683C23.3815 8.0599 23.3815 8.74583 22.9585 9.1689L9.16984 22.9575C8.74676 23.3805 8.06084 23.3805 7.63777 22.9575L3.04157 18.3613C2.61851 17.9382 2.61851 17.2523 3.04157 16.8292L16.8301 3.04064C17.2532 2.61757 17.9392 2.61757 18.3622 3.04064ZM15.2981 19.8928L16.8301 18.3608L19.2595 20.7902H20.7916V19.2581L18.3622 16.8287L19.8943 15.2966L22.7496 18.1519V22.7489H18.1542L15.2981 19.8928ZM6.10555 10.7003L3.04142 7.63615C2.61836 7.21308 2.61836 6.52715 3.04142 6.10409L6.10555 3.03995C6.52861 2.61689 7.21455 2.61689 7.63761 3.03995L10.7017 6.10409L9.16968 7.63615L6.87159 5.33805L5.33952 6.87012L7.63761 9.16822L6.10555 10.7003Z" fill="#2B48F1"/>
</svg>
