<svg width="24" height="18" viewBox="0 0 24 18" fill="none" xmlns="http://www.w3.org/2000/svg">
<path d="M8.71177 14.4993C8.44893 16.3368 6.86867 17.7493 4.9585 17.7493C3.04832 17.7493 1.46806 16.3368 1.20522 14.4993H0.0834961V1.49935C0.0834961 0.901046 0.568526 0.416016 1.16683 0.416016H16.3335C16.9318 0.416016 17.4168 0.901046 17.4168 1.49935V3.66602H20.6668L23.9168 8.05969V14.4993H21.7118C21.4489 16.3368 19.8686 17.7493 17.9585 17.7493C16.0484 17.7493 14.4681 16.3368 14.2052 14.4993H8.71177ZM15.2502 2.58268H2.25016V11.3041C2.93836 10.6017 3.89754 10.166 4.9585 10.166C6.47105 10.166 7.77673 11.0516 8.38527 12.3327H14.5317C14.7134 11.9503 14.9572 11.6029 15.2502 11.3041V2.58268ZM17.4168 9.08268H21.7502V8.77393L19.5745 5.83268H17.4168V9.08268ZM17.9585 15.5827C18.666 15.5827 19.2679 15.1305 19.491 14.4993C19.5509 14.3299 19.5835 14.1476 19.5835 13.9577C19.5835 13.0602 18.8559 12.3327 17.9585 12.3327C17.0611 12.3327 16.3335 13.0602 16.3335 13.9577C16.3335 14.1476 16.3661 14.3299 16.426 14.4993C16.6491 15.1305 17.251 15.5827 17.9585 15.5827ZM6.5835 13.9577C6.5835 13.0602 5.85596 12.3327 4.9585 12.3327C4.06103 12.3327 3.3335 13.0602 3.3335 13.9577C3.3335 14.1476 3.36608 14.3299 3.42596 14.4993C3.64904 15.1305 4.25096 15.5827 4.9585 15.5827C5.66603 15.5827 6.26795 15.1305 6.49103 14.4993C6.55091 14.3299 6.5835 14.1476 6.5835 13.9577Z" fill="#2B48F1"/>
</svg>
