<svg width="26" height="26" viewBox="0 0 26 26" fill="none" xmlns="http://www.w3.org/2000/svg">
<path fill-rule="evenodd" clip-rule="evenodd" d="M24.0062 5.66318L22.7387 5.36418L19.3132 8.77018L17.373 6.79418L20.714 3.28906L20.4215 2.00206C19.7155 1.76587 18.977 1.64087 18.2326 1.63156C17.4205 1.61907 16.6146 1.77395 15.865 2.08656C15.1412 2.41418 14.487 2.87754 13.9377 3.45156C13.3263 4.03073 12.8421 4.73077 12.5159 5.50718C11.8877 7.05237 11.8877 8.78175 12.5159 10.3269C9.12812 13.6598 5.78412 17.0368 2.48473 20.4572C2.14348 20.9041 1.98098 21.4614 2.02323 22.0221C2.05653 22.625 2.3277 23.1902 2.77723 23.5934C2.97873 23.8128 3.21923 23.9948 3.48736 24.1264C3.76361 24.2483 4.06098 24.3182 4.36161 24.3328C4.87511 24.3231 5.36748 24.1281 5.74936 23.7852C8.26486 21.4176 13.0846 16.5539 15.8227 13.7037C16.5654 14.0189 17.3632 14.1814 18.1692 14.1798C18.9806 14.1792 19.7835 14.0159 20.5307 13.6997C21.2779 13.3835 21.9541 12.9207 22.5194 12.3387C23.6805 11.1545 24.329 9.56092 24.3247 7.90243C24.3435 7.14352 24.2359 6.38677 24.0062 5.66318ZM4.76623 22.6331C4.70368 22.6886 4.62829 22.7277 4.54686 22.7468C4.46674 22.7607 4.38484 22.7607 4.30473 22.7468C4.22073 22.734 4.14073 22.7023 4.07073 22.6542C3.99562 22.6102 3.9321 22.5489 3.88548 22.4754C3.65798 22.2431 3.44511 21.8011 3.65798 21.5524C5.88423 19.1848 10.4684 14.5568 13.3349 11.7277C13.4974 11.9422 13.6761 12.1469 13.8679 12.3387C14.0596 12.5386 14.266 12.7238 14.4854 12.8928C11.7131 15.7366 7.19073 20.3093 4.76623 22.6331ZM22.833 7.90243C22.8362 9.14556 22.352 10.3399 21.481 11.2304C20.6118 12.0831 19.4428 12.5607 18.2253 12.5607C17.0077 12.5607 15.8388 12.0831 14.9696 11.2304C14.3326 10.5656 13.8974 9.73363 13.7147 8.8312C13.5321 7.92876 13.6094 6.99301 13.9377 6.13281C14.1563 5.54738 14.4953 5.01433 14.9328 4.56814C15.3703 4.12196 15.8966 3.77256 16.4776 3.54256C17.0293 3.31166 17.6216 3.19342 18.2196 3.19481H18.6324L15.6797 6.23843V7.36943L18.7591 10.4342H19.8316L22.833 7.48318V7.90243ZM5.26511 10.8681H7.75298L8.8986 12.0332L10.0004 10.9379L8.91973 9.83618V9.76631L9.01236 7.08668L8.65486 6.37656L4.00736 3.31831L3.04698 3.42556L1.69661 4.80518L1.58936 5.77856L4.57611 10.5203L5.26511 10.8681ZM3.72948 4.96606L7.48973 7.44256L7.42636 9.26743H5.67786L3.25336 5.42918L3.72948 4.96606ZM15.2751 16.2761L16.3704 15.1824L21.4176 20.3581C21.8427 20.8049 22.0798 21.398 22.0798 22.0147C22.0798 22.6315 21.8427 23.2246 21.4176 23.6714C21.0979 23.9996 20.6869 24.224 20.2379 24.3153C19.789 24.4066 19.3229 24.3606 18.9005 24.1833C18.6309 24.0637 18.389 23.8894 18.1904 23.6714L13.0846 18.4666L14.188 17.3648L19.2775 22.5551C19.3459 22.6305 19.4311 22.689 19.5261 22.7257C19.7131 22.8017 19.9224 22.8017 20.1095 22.7257C20.2045 22.6889 20.2896 22.6305 20.3581 22.5551C20.4292 22.4846 20.4846 22.3999 20.5206 22.3064C20.5579 22.2111 20.5777 22.1098 20.5791 22.0074C20.5775 21.9052 20.5582 21.8041 20.5222 21.7084C20.4862 21.615 20.4309 21.5303 20.3597 21.4598L15.2751 16.2761Z" fill="#2B48F1"/>
</svg>
