<svg width="26" height="26" viewBox="0 0 26 26" fill="none" xmlns="http://www.w3.org/2000/svg">
<path d="M3.25 13H13V14.625H3.25V13ZM1.625 8.9375H9.75V10.5625H1.625V8.9375Z" fill="#2B48F1"/>
<path d="M24.3092 13.4924L21.8717 7.80487C21.8091 7.65869 21.705 7.5341 21.5722 7.44656C21.4395 7.35903 21.284 7.31241 21.125 7.3125H18.6875V5.6875C18.6875 5.47201 18.6019 5.26535 18.4495 5.11298C18.2971 4.9606 18.0905 4.875 17.875 4.875H4.87497V6.5H17.0625V16.7017C16.6922 16.9167 16.3682 17.2029 16.1091 17.5437C15.85 17.8845 15.661 18.2733 15.5528 18.6875H10.4471C10.2493 17.9216 9.77903 17.2541 9.12434 16.8101C8.46964 16.3662 7.6755 16.1762 6.89078 16.2759C6.10606 16.3756 5.38462 16.758 4.86171 17.3516C4.33879 17.9451 4.05029 18.709 4.05029 19.5C4.05029 20.291 4.33879 21.0549 4.86171 21.6484C5.38462 22.242 6.10606 22.6244 6.89078 22.7241C7.6755 22.8238 8.46964 22.6338 9.12434 22.1899C9.77903 21.7459 10.2493 21.0784 10.4471 20.3125H15.5528C15.7296 21.0098 16.1338 21.6283 16.7015 22.0701C17.2693 22.5119 17.9681 22.7517 18.6875 22.7517C19.4068 22.7517 20.1057 22.5119 20.6734 22.0701C21.2411 21.6283 21.6453 21.0098 21.8221 20.3125H23.5625C23.778 20.3125 23.9846 20.2269 24.137 20.0745C24.2894 19.9222 24.375 19.7155 24.375 19.5V13.8125C24.375 13.7024 24.3526 13.5935 24.3092 13.4924ZM7.31247 21.125C6.99107 21.125 6.6769 21.0297 6.40967 20.8511C6.14244 20.6726 5.93415 20.4188 5.81116 20.1219C5.68817 19.8249 5.65599 19.4982 5.71869 19.183C5.78139 18.8678 5.93616 18.5782 6.16342 18.351C6.39068 18.1237 6.68023 17.9689 6.99545 17.9062C7.31066 17.8435 7.6374 17.8757 7.93433 17.9987C8.23126 18.1217 8.48505 18.33 8.6636 18.5972C8.84216 18.8644 8.93747 19.1786 8.93747 19.5C8.93704 19.9308 8.76569 20.3439 8.46104 20.6486C8.15639 20.9532 7.74331 21.1246 7.31247 21.125ZM18.6875 8.9375H20.5887L22.3307 13H18.6875V8.9375ZM18.6875 21.125C18.3661 21.125 18.0519 21.0297 17.7847 20.8511C17.5174 20.6726 17.3092 20.4188 17.1862 20.1219C17.0632 19.8249 17.031 19.4982 17.0937 19.183C17.1564 18.8678 17.3112 18.5782 17.5384 18.351C17.7657 18.1237 18.0552 17.9689 18.3704 17.9062C18.6857 17.8435 19.0124 17.8757 19.3093 17.9987C19.6063 18.1217 19.86 18.33 20.0386 18.5972C20.2172 18.8644 20.3125 19.1786 20.3125 19.5C20.312 19.9308 20.1407 20.3439 19.836 20.6486C19.5314 20.9532 19.1183 21.1246 18.6875 21.125ZM22.75 18.6875H21.8221C21.6431 17.9915 21.2383 17.3746 20.671 16.9335C20.1037 16.4924 19.4061 16.252 18.6875 16.25V14.625H22.75V18.6875Z" fill="#2B48F1"/>
</svg>
