<svg width="26" height="26" viewBox="0 0 26 26" fill="none" xmlns="http://www.w3.org/2000/svg">
<path d="M21.6668 23.834H19.5002V21.6673C19.5002 19.8723 18.0451 18.4173 16.2502 18.4173H9.75016C7.95524 18.4173 6.50016 19.8723 6.50016 21.6673V23.834H4.3335V21.6673C4.3335 18.6758 6.75862 16.2507 9.75016 16.2507H16.2502C19.2417 16.2507 21.6668 18.6758 21.6668 21.6673V23.834ZM13.0002 14.084C9.41031 14.084 6.50016 11.1738 6.50016 7.58398C6.50016 3.99413 9.41031 1.08398 13.0002 1.08398C16.59 1.08398 19.5002 3.99413 19.5002 7.58398C19.5002 11.1738 16.59 14.084 13.0002 14.084ZM13.0002 11.9173C15.3934 11.9173 17.3335 9.97722 17.3335 7.58398C17.3335 5.19075 15.3934 3.25065 13.0002 3.25065C10.6069 3.25065 8.66683 5.19075 8.66683 7.58398C8.66683 9.97722 10.6069 11.9173 13.0002 11.9173Z" fill="#2B48F1"/>
</svg>
