<svg width="26" height="26" viewBox="0 0 26 26" fill="none" xmlns="http://www.w3.org/2000/svg">
<path d="M11.9481 2.75161C12.2699 2.5729 12.6319 2.47913 13 2.47913C13.3681 2.47913 13.7301 2.5729 14.0519 2.75161L22.1932 7.27345C22.362 7.36731 22.5026 7.50458 22.6005 7.67106C22.6984 7.83753 22.75 8.02715 22.75 8.22028V17.1415C22.7501 17.5281 22.6468 17.9076 22.4508 18.2408C22.2548 18.574 21.9732 18.8486 21.6353 19.0363L14.0519 23.2483C13.7301 23.427 13.3681 23.5208 13 23.5208C12.6319 23.5208 12.2699 23.427 11.9481 23.2483L4.36475 19.0352C4.02714 18.8477 3.74577 18.5734 3.54977 18.2406C3.35378 17.9079 3.25028 17.5288 3.25 17.1426V8.22028C3.24999 8.02715 3.30161 7.83753 3.39952 7.67106C3.49742 7.50458 3.63805 7.36731 3.80683 7.27345L11.9481 2.75161Z" stroke="#2B48F1" stroke-width="2" stroke-linecap="round" stroke-linejoin="round"/>
<path d="M8.125 4.875L17.875 10.2917V14.0833M6.5 13.3553L9.75 15.1667" stroke="#2B48F1" stroke-width="2" stroke-linecap="round" stroke-linejoin="round"/>
<path d="M3.25 7.58325L13 12.9999M13 12.9999L22.75 7.58325M13 12.9999V23.2916" stroke="#2B48F1" stroke-width="2" stroke-linejoin="round"/>
</svg>
