<svg width="18" height="23" viewBox="0 0 18 23" fill="none" xmlns="http://www.w3.org/2000/svg">
<path d="M17.6668 22.834H15.5002V20.6673C15.5002 18.8723 14.0451 17.4173 12.2502 17.4173H5.75016C3.95524 17.4173 2.50016 18.8723 2.50016 20.6673V22.834H0.333496V20.6673C0.333496 17.6758 2.75862 15.2507 5.75016 15.2507H12.2502C15.2417 15.2507 17.6668 17.6758 17.6668 20.6673V22.834ZM9.00016 13.084C5.41031 13.084 2.50016 10.1738 2.50016 6.58398C2.50016 2.99413 5.41031 0.0839844 9.00016 0.0839844C12.59 0.0839844 15.5002 2.99413 15.5002 6.58398C15.5002 10.1738 12.59 13.084 9.00016 13.084ZM9.00016 10.9173C11.3934 10.9173 13.3335 8.97722 13.3335 6.58398C13.3335 4.19075 11.3934 2.25065 9.00016 2.25065C6.60693 2.25065 4.66683 4.19075 4.66683 6.58398C4.66683 8.97722 6.60693 10.9173 9.00016 10.9173Z" fill="#2B48F1"/>
</svg>
