<?xml version="1.0" encoding="utf-8"?>
<!-- Generator: Adobe Illustrator 24.0.0, SVG Export Plug-In . SVG Version: 6.00 Build 0)  -->
<svg version="1.1" id="Layer_1" xmlns="http://www.w3.org/2000/svg" xmlns:xlink="http://www.w3.org/1999/xlink" x="0px" y="0px"
	 viewBox="0 0 79.2 125" style="enable-background:new 0 0 79.2 125;" xml:space="preserve">
<g>
	<path d="M39.5,86.6h-6.1V45.8c0-2.1-1.7-3.7-3.7-3.7H13.6c-2.1,0-3.7,1.7-3.7,3.7v40.8H3.7c-1.3,0-2.6,0.7-3.2,1.9s-0.7,2.6,0,3.7
		l17.9,31c0.7,1.1,1.9,1.9,3.2,1.9s2.6-0.7,3.2-1.9l17.9-31c0.7-1.1,0.7-2.6,0-3.7S40.8,86.6,39.5,86.6z M14.8,87.8V47.1h13.5v40.8
		c0,2.1,1.7,3.7,3.7,3.7h5.2l-15.7,27.2L5.9,91.6h5.2C13.2,91.6,14.8,89.9,14.8,87.8z"/>
	<path d="M78.7,32.8l-17.9-31C60.1,0.7,58.9,0,57.6,0S55,0.7,54.4,1.9l-17.9,31c-0.7,1.1-0.7,2.6,0,3.7s1.9,1.9,3.2,1.9h6.1v40.8
		c0,2.1,1.7,3.7,3.7,3.7h16.1c2.1,0,3.7-1.7,3.7-3.7V38.4h6.1c1.3,0,2.6-0.7,3.2-1.9S79.4,34,78.7,32.8z M68.1,33.4
		c-2.1,0-3.7,1.7-3.7,3.7v40.8H50.8V37.2c0-2.1-1.7-3.7-3.7-3.7h-5.2L57.6,6.3l15.7,27.2H68.1z"/>
</g>
</svg>
