<?xml version="1.0" encoding="utf-8"?>
<!-- Generator: Adobe Illustrator 24.0.0, SVG Export Plug-In . SVG Version: 6.00 Build 0)  -->
<svg version="1.1" id="Layer_1" xmlns="http://www.w3.org/2000/svg" xmlns:xlink="http://www.w3.org/1999/xlink" x="0px" y="0px"
	 viewBox="0 0 141.7 125" style="enable-background:new 0 0 141.7 125;" xml:space="preserve">
<style type="text/css">
	.st0{fill:#FF0000;}
	.st1{fill:#FFFFFF;}
</style>
<g>
	<g>
		<path d="M47.5,103.6c-5.9,0-10.7,4.8-10.7,10.7S41.6,125,47.5,125c5.9,0,10.7-4.8,10.7-10.7S53.4,103.6,47.5,103.6z M47.5,120
			c-3.2,0-5.7-2.6-5.7-5.7s2.6-5.7,5.7-5.7c3.2,0,5.7,2.6,5.7,5.7S50.7,120,47.5,120z"/>
		<path d="M78.7,103.6c-5.9,0-10.7,4.8-10.7,10.7S72.8,125,78.7,125s10.7-4.8,10.7-10.7S84.6,103.6,78.7,103.6z M78.7,120
			c-3.2,0-5.7-2.6-5.7-5.7s2.6-5.7,5.7-5.7s5.7,2.6,5.7,5.7S81.8,120,78.7,120z"/>
		<path d="M139.2,13.6h-19.9c-1,0-2,0.6-2.3,1.6l-9.5,24.8H72.8c-0.1,0.8-0.2,1.7-0.3,2.5c-0.1,0.8-0.3,1.7-0.5,2.5h33.7l-4.9,13.5
			H65.6c-0.7,0.9-1.3,1.7-2.1,2.5c-0.8,0.9-1.6,1.7-2.5,2.5h38l-5,13.8H34.9l-1.3-4.4c-0.9-0.1-1.8-0.2-2.7-0.3
			C30,72.4,29,72.2,28.1,72l8.2,27.2c0.3,1.1,1.3,1.8,2.4,1.8h50.4c1.1,0,2-0.7,2.4-1.7l20.1-56l1.7-4.4l7.8-20.3h15.4h2.8
			c1.4,0,2.5-1.1,2.5-2.5S140.6,13.6,139.2,13.6z M40.5,96l-4.1-13.8h55.8l-5,13.8H40.5z"/>
	</g>
	<g>
		<path class="st0" d="M36.5,5C19.1,5,5,19.1,5,36.5c0,13.8,9,25.6,21.4,29.8c0.9,0.3,1.9,0.6,2.9,0.8c0.9,0.2,1.8,0.4,2.8,0.5
			c1.5,0.2,2.9,0.3,4.4,0.3c5.9,0,11.5-1.7,16.2-4.5c1.2-0.8,2.4-1.6,3.6-2.5c1-0.8,1.9-1.6,2.7-2.5c3.6-3.7,6.4-8.3,7.8-13.5
			c0.2-0.8,0.4-1.7,0.6-2.5c0.2-0.8,0.3-1.7,0.4-2.5c0.1-1.1,0.2-2.3,0.2-3.5C68,19.1,53.8,5,36.5,5z M40.7,42.4
			c-0.7,0.8-1.5,1.6-2.3,2.5c-1.2,1.2-2.4,2.4-3.8,3.8l-2.9,2.7v0.1h16.2v4.1H28.4h-2.6h-1v-3l0.1-0.1l2-2l1.8-1.7
			c1.5-1.4,2.8-2.7,4-3.9c0.9-0.9,1.7-1.7,2.4-2.5c0.8-0.9,1.6-1.7,2.3-2.5c3.2-3.8,4.7-6.8,4.8-10c0-3.7-1.8-7.1-7.2-7.1
			c-3.3,0-6,1.7-7.7,3.1l-1.6-3.4c2.5-2.1,6.1-3.7,10.2-3.7c7.8,0,11.1,5.3,11.1,10.5c0,3.8-1.5,7.1-4.2,10.6
			C42.1,40.8,41.4,41.6,40.7,42.4z"/>
		<g>
			<path class="st1" d="M36.5,0C16.4,0,0,16.4,0,36.5C0,53.7,12,68.2,28.1,72c0.9,0.2,1.8,0.4,2.8,0.6c0.9,0.1,1.8,0.2,2.7,0.3
				c1,0.1,1.9,0.1,2.9,0.1c9.4,0,18.1-3.6,24.5-9.5c0.9-0.8,1.7-1.6,2.5-2.5c0.7-0.8,1.4-1.6,2.1-2.5c3-4,5.2-8.5,6.4-13.5
				c0.2-0.8,0.4-1.7,0.5-2.5c0.1-0.8,0.2-1.7,0.3-2.5c0.1-1.1,0.2-2.3,0.2-3.5C73,16.4,56.6,0,36.5,0z M67.8,39.9
				c-0.1,0.8-0.2,1.7-0.4,2.5c-0.2,0.8-0.4,1.7-0.6,2.5c-1.4,5.1-4.2,9.8-7.8,13.5c-0.9,0.9-1.8,1.7-2.7,2.5
				c-1.1,0.9-2.3,1.7-3.6,2.5C48,66.3,42.4,68,36.5,68c-1.5,0-3-0.1-4.4-0.3c-0.9-0.1-1.9-0.3-2.8-0.5c-1-0.2-1.9-0.5-2.9-0.8
				C14,62.1,5,50.3,5,36.5C5,19.1,19.1,5,36.5,5S68,19.1,68,36.5C68,37.7,67.9,38.8,67.8,39.9z"/>
			<path class="st1" d="M31.7,51.4l2.9-2.7c1.4-1.3,2.6-2.6,3.8-3.8c0.8-0.9,1.6-1.7,2.3-2.5c0.8-0.8,1.4-1.7,2.1-2.5
				c2.7-3.5,4.2-6.9,4.2-10.6c0-5.2-3.3-10.5-11.1-10.5c-4.2,0-7.7,1.6-10.2,3.7l1.6,3.4c1.7-1.4,4.4-3.1,7.7-3.1
				c5.4,0,7.2,3.4,7.2,7.1c0,3.3-1.6,6.3-4.8,10c-0.7,0.8-1.4,1.6-2.3,2.5c-0.8,0.8-1.6,1.6-2.4,2.5c-1.2,1.2-2.5,2.5-4,3.9
				l-1.8,1.7l-2,2l-0.1,0.1v3h1h2.6h19.5v-4.1H31.7V51.4z"/>
		</g>
	</g>
</g>
</svg>
