<?xml version="1.0" encoding="utf-8"?>
<!-- Generator: Adobe Illustrator 24.0.0, SVG Export Plug-In . SVG Version: 6.00 Build 0)  -->
<svg version="1.1" id="Layer_1" xmlns="http://www.w3.org/2000/svg" xmlns:xlink="http://www.w3.org/1999/xlink" x="0px" y="0px"
	 viewBox="0 0 122.4 111.4" style="enable-background:new 0 0 122.4 111.4;" xml:space="preserve">
<g>
	<path d="M28.1,90c-5.9,0-10.7,4.8-10.7,10.7c0,5.9,4.8,10.7,10.7,10.7s10.7-4.8,10.7-10.7C38.9,94.8,34,90,28.1,90z M28.1,106.4
		c-3.2,0-5.7-2.6-5.7-5.7c0-3.2,2.6-5.7,5.7-5.7s5.7,2.6,5.7,5.7C33.9,103.9,31.3,106.4,28.1,106.4z"/>
	<path d="M59.3,90c-5.9,0-10.7,4.8-10.7,10.7c0,5.9,4.8,10.7,10.7,10.7S70,106.6,70,100.7C70,94.8,65.2,90,59.3,90z M59.3,106.4
		c-3.2,0-5.7-2.6-5.7-5.7c0-3.2,2.6-5.7,5.7-5.7s5.7,2.6,5.7,5.7C65,103.9,62.5,106.4,59.3,106.4z"/>
	<path d="M119.9,0H99.9c-1,0-2,0.6-2.3,1.6l-9.5,24.8H2.5c-0.8,0-1.5,0.4-2,1C0,28-0.1,28.8,0.1,29.6l16.8,56
		c0.3,1.1,1.3,1.8,2.4,1.8h50.4c1.1,0,2-0.7,2.4-1.7l20.1-56l1.7-4.4L101.6,5H117h2.8c1.4,0,2.5-1.1,2.5-2.5S121.2,0,119.9,0z
		 M21.2,82.4L17,68.6h55.9l-5,13.8H21.2z M86.3,31.4l-4.9,13.5H9.9l-4-13.5H86.3z M79.6,49.9l-5,13.8H15.5l-4.1-13.8H79.6z"/>
</g>
</svg>
