<?xml version="1.0" encoding="utf-8"?>
<!-- Generator: Adobe Illustrator 24.0.0, SVG Export Plug-In . SVG Version: 6.00 Build 0)  -->
<svg version="1.1" id="Layer_1" xmlns="http://www.w3.org/2000/svg" xmlns:xlink="http://www.w3.org/1999/xlink" x="0px" y="0px"
	 viewBox="0 0 326.5 205" style="enable-background:new 0 0 326.5 205;" xml:space="preserve">
<style type="text/css">
	.st0{fill:none;}
</style>
<g>
	<path class="st0" d="M242.7,108.8c-2.2,0-4.3-0.1-6.5-0.4v68.4h14.2c1.3-13,12.3-23.2,25.6-23.2s24.3,10.2,25.6,23.2h19.9v-18.5
		c0-30.1-13-52.7-38.7-67.2C272.9,101.9,258.6,108.8,242.7,108.8z"/>
	<g>
		<path d="M21.7,89.7h123.9c1.4,0,2.5-1.1,2.5-2.5s-1.1-2.5-2.5-2.5H21.7c-1.4,0-2.5,1.1-2.5,2.5S20.3,89.7,21.7,89.7z"/>
		<path d="M111.6,112.3c0-1.4-1.1-2.5-2.5-2.5H2.5c-1.4,0-2.5,1.1-2.5,2.5s1.1,2.5,2.5,2.5h106.6
			C110.5,114.8,111.6,113.6,111.6,112.3z"/>
		<path d="M186.6,133.6c0-1.4-1.1-2.5-2.5-2.5H33.2c-1.4,0-2.5,1.1-2.5,2.5s1.1,2.5,2.5,2.5h150.8
			C185.5,136.1,186.6,135,186.6,133.6z"/>
		<path d="M286.1,87.1c6.9-9.1,11-20.5,11-32.7c0-30-24.4-54.4-54.4-54.4c-24.8,0-45.8,16.7-52.3,39.4H81.1
			c-7.6,0-13.8,6.2-13.8,13.8v18.6c0,1.4,1.1,2.5,2.5,2.5s2.5-1.1,2.5-2.5V53.3c0-4.9,4-8.8,8.8-8.8h108.1c-0.6,3.2-0.9,6.6-0.9,10
			c0,26.1,18.4,47.9,42.9,53.2v69.2h-73.7c-1.3-13-12.3-23.2-25.6-23.2s-24.3,10.2-25.6,23.2H81.1c-4.9,0-8.8-4-8.8-8.8V153
			c0-1.4-1.1-2.5-2.5-2.5s-2.5,1.1-2.5,2.5v14.9c0,7.6,6.2,13.8,13.8,13.8h25.2c1.3,13,12.3,23.2,25.6,23.2s24.3-10.2,25.6-23.2
			h76.2h16.7c1.3,13,12.3,23.2,25.6,23.2s24.3-10.2,25.6-23.2H324c1.4,0,2.5-1.1,2.5-2.5v-21C326.5,119.8,305.8,98.6,286.1,87.1z
			 M152.6,179.3c0,0.8-0.1,1.7-0.2,2.5c-1.2,10.3-10,18.2-20.6,18.2s-19.3-8-20.6-18.2c-0.1-0.8-0.2-1.7-0.2-2.5s0.1-1.7,0.2-2.5
			c1.2-10.3,10-18.2,20.6-18.2s19.3,8,20.6,18.2C152.5,177.6,152.6,178.4,152.6,179.3z M231.2,102.4c-21.7-5.2-37.9-24.7-37.9-48
			c0-3.4,0.3-6.7,1-10c0.3-1.7,0.8-3.4,1.3-5C202,19.5,220.7,5,242.7,5c27.2,0,49.4,22.2,49.4,49.4c0,11.4-3.9,21.9-10.4,30.3
			c-1.1,1.4-2.2,2.7-3.4,3.9c-9,9.3-21.6,15.2-35.6,15.2c-2.2,0-4.3-0.2-6.5-0.4C234.5,103.1,232.8,102.8,231.2,102.4z M296.5,181.8
			c-1.2,10.3-10,18.2-20.6,18.2s-19.3-8-20.6-18.2c-0.1-0.8-0.2-1.7-0.2-2.5s0.1-1.7,0.2-2.5c1.2-10.3,10-18.2,20.6-18.2
			s19.3,8,20.6,18.2c0.1,0.8,0.2,1.7,0.2,2.5S296.6,181,296.5,181.8z M321.5,176.8h-19.9c-1.3-13-12.3-23.2-25.6-23.2
			s-24.3,10.2-25.6,23.2h-14.2v-68.4c2.1,0.3,4.3,0.4,6.5,0.4c15.9,0,30.2-6.8,40.1-17.7c25.7,14.5,38.7,37.1,38.7,67.2V176.8z"/>
		<path d="M252.9,74.3l4.1,6.3l5.4,8.1c0.5,0.7,1.3,1.1,2.1,1.1c0.5,0,1-0.1,1.4-0.4c1.2-0.8,1.5-2.3,0.7-3.5l-2-3l-3.1-4.7l-1.3-2
			l-15-22.6V28.8v-7.6c0-1.4-1.1-2.5-2.5-2.5s-2.5,1.1-2.5,2.5v33.1c0,0.5,0.1,1,0.4,1.4L252.9,74.3z"/>
	</g>
</g>
</svg>
