<?xml version="1.0" encoding="utf-8"?>
<!-- Generator: Adobe Illustrator 24.0.0, SVG Export Plug-In . SVG Version: 6.00 Build 0)  -->
<svg version="1.1" id="Layer_1" xmlns="http://www.w3.org/2000/svg" xmlns:xlink="http://www.w3.org/1999/xlink" x="0px" y="0px"
	 viewBox="0 0 283 205" style="enable-background:new 0 0 283 205;" xml:space="preserve">
<g>
	<path d="M15.4,36.8l2.5,5.1l17,34.5c1,2.1,3.1,3.3,5.2,3.3c0.5,0,1-0.1,1.6-0.2l4.6,5.4c0,0,0,0,0.1,0.1c-1.4,1.7-2.3,3.9-2.3,6.3
		v0.5c0,5.5,4.5,10,10,10h17.5v18.2H54.8c-4.9,0-9,3.3-10.3,7.7c-1.2,0.4-2.1,1.6-2.1,3c0,1.8,1.4,3.2,3.2,3.2s3.2-1.4,3.2-3.2
		c0-1-0.5-1.9-1.3-2.5c1-3,3.9-5.2,7.3-5.2h16.8v4.9c-1,0.5-1.7,1.6-1.7,2.8c0,1.8,1.4,3.2,3.2,3.2s3.2-1.4,3.2-3.2
		c0-1.2-0.7-2.2-1.7-2.8v-4.9h16.8c3.4,0,6.2,2.2,7.3,5.2c-0.8,0.6-1.3,1.5-1.3,2.5c0,1.8,1.4,3.2,3.2,3.2s3.2-1.4,3.2-3.2
		c0-1.4-0.9-2.5-2.1-3c-1.3-4.5-5.4-7.7-10.3-7.7H74.6v-18.2h17.5c5.5,0,10-4.5,10-10v-0.5c0-5.5-4.5-10-10-10h-0.9
		c0.7-1.9,1.2-4.2,1.3-6.9c1.9-0.5,3.2-2.1,3.2-4.1v-2.2c0-2.4-1.9-4.3-4.3-4.3h-36c-2.4,0-4.3,1.9-4.3,4.3v2.2c0,2.3,1.8,4.1,4,4.2
		c0.1,2.6,0.6,4.9,1.3,6.8h-2.5c-2,0-3.9,0.6-5.5,1.7l-4.2-5c0.7-0.6,1.2-1.4,1.5-2.4c0.5-1.5,0.4-3.1-0.3-4.5L25.9,31
		c-0.8-1.6-2.2-2.7-3.8-3.1c-1.3-0.3-2.7-0.2-4,0.4l-0.2,0.1c-1.1,0.5-1.9,1.3-2.4,2.3c-1,1.6-1.1,3.7-0.2,5.5L15.4,36.8z
		 M68.6,91.2c0.1,0,0.1,0,0.2,0c0.7,0,1.4-0.6,1.5-1.3c0.1-0.8-0.5-1.6-1.3-1.7c-0.3,0-4.1-0.6-7.2-4H86c-3,3.4-6.9,4-7.2,4
		c-0.8,0.1-1.4,0.9-1.3,1.7c0.1,0.8,0.7,1.3,1.5,1.3c0.1,0,0.1,0,0.2,0c0.1,0,6.6-0.9,10.5-7h2.4c3.8,0,7,3.1,7,7v0.5
		c0,3.8-3.1,7-7,7h-19h-19c-3.8,0-7-3.1-7-7v-0.5c0-3.8,3.1-7,7-7h4C62,90.3,68.5,91.2,68.6,91.2z M54.3,67.9c0-0.7,0.6-1.3,1.3-1.3
		h36c0.7,0,1.3,0.6,1.3,1.3v2.2c0,0.7-0.6,1.3-1.3,1.3h-36c-0.7,0-1.3-0.6-1.3-1.3V67.9z M58.3,74.4h31.3c-0.2,2.8-0.7,5-1.6,6.7
		H59.9C59,79.4,58.4,77.2,58.3,74.4z M17.9,32.5c0.3-0.5,0.7-1,1.3-1.3l0.2-0.1c1.4-0.7,3.1-0.1,3.8,1.3l19.7,40
		c0.3,0.7,0.4,1.4,0.1,2.2c-0.2,0.7-0.8,1.3-1.4,1.6l-0.2,0.1C40,77,38.3,76.4,37.6,75L17.9,35l0,0C17.5,34.2,17.5,33.2,17.9,32.5z"
		/>
	<path d="M220.7,91.3c-1.7,0-3.1,1.4-3.1,3.1s1.4,3.1,3.1,3.1s3.1-1.4,3.1-3.1S222.5,91.3,220.7,91.3z M220.6,94.4
		c0-0.1,0-0.1,0.1-0.1c0.1,0,0.1,0,0.1,0.1C220.9,94.6,220.6,94.6,220.6,94.4z"/>
	<path d="M220.7,105.8c-1.7,0-3.1,1.4-3.1,3.1s1.4,3.1,3.1,3.1s3.1-1.4,3.1-3.1S222.5,105.8,220.7,105.8z M220.6,108.9
		c0-0.1,0-0.1,0.1-0.1c0.1,0,0.1,0,0.1,0.1C220.9,109,220.6,109,220.6,108.9z"/>
	<path d="M251.9,114.6V13.3c0-1.1-0.7-2.1-1.8-2.4C249.7,10.8,212.8,0,181.2,0c-27.5,0-48.7,24.6-55.3,33.1
		C119.4,24.6,98.2,0,70.7,0C39,0,2.2,10.8,1.8,10.9C0.7,11.2,0,12.2,0,13.3v146.9c0,0.8,0.4,1.5,1,2c0.6,0.5,1.5,0.6,2.2,0.4
		c0.1,0,3.8-1.1,9.7-2.6v14.5c0,0.8,0.4,1.6,1.1,2.1s1.6,0.6,2.3,0.2c0.2-0.1,23.6-9.5,54.3-9.5c30.3,0,53.5,18.7,53.7,18.9
		c0,0,0,0,0.1,0c0.1,0,0.1,0.1,0.2,0.1c0,0,0.1,0.1,0.1,0.1c0,0,0,0,0,0c0,0,0,0,0.1,0c0,0,0,0,0,0c0,0,0,0,0.1,0c0,0,0,0,0,0
		c0.1,0,0.1,0.1,0.2,0.1c0,0,0,0,0,0c0,0,0.1,0,0.1,0c0,0,0.1,0,0.1,0c0,0,0.1,0,0.1,0c0,0,0.1,0,0.1,0c0.1,0,0.3,0,0.4,0
		s0.3,0,0.4,0c0,0,0.1,0,0.1,0c0,0,0.1,0,0.1,0c0,0,0.1,0,0.1,0c0,0,0.1,0,0.1,0c0,0,0,0,0,0c0.1,0,0.1,0,0.2-0.1c0,0,0,0,0,0
		c0,0,0,0,0.1,0c0,0,0,0,0,0c0,0,0,0,0.1,0c0,0,0,0,0,0c0,0,0.1-0.1,0.1-0.1c0.1,0,0.1-0.1,0.2-0.1c0,0,0,0,0.1,0
		c0.2-0.2,23.4-18.9,53.7-18.9c3.3,0,6.6,0.1,9.7,0.3c4.3,21.3,23.1,37.3,45.6,37.3c25.6,0,46.5-20.9,46.5-46.5
		C283,138.3,270,121,251.9,114.6z M196.1,168.1c-0.2-0.8-0.4-1.7-0.5-2.6c-0.1-0.8-0.3-1.7-0.4-2.5c-0.2-1.5-0.2-3-0.2-4.5
		c0-2,0.2-4,0.4-5.9c0.1-0.8,0.3-1.7,0.4-2.5c0.2-0.8,0.4-1.6,0.6-2.5c1.8-6.7,5.2-12.6,9.8-17.5c0.5-0.5,1-1,1.5-1.5
		c0.5-0.5,1-0.9,1.5-1.4c2.9-2.5,6-4.6,9.5-6.2c0.5-0.2,1.1-0.5,1.6-0.7c2.9-1.2,5.9-2.1,9.1-2.7c1.4-0.2,2.9-0.4,4.4-0.5
		c0.1,0,0.1,0,0.2,0c0.4,0,0.9,0,1.3-0.1c0.4,0,0.8,0,1.2,0c0,0,0,0,0,0c0.8,0,1.7,0,2.5,0.1c2.7,0.2,5.3,0.6,7.9,1.2
		c0.8,0.2,1.7,0.5,2.5,0.7c0.8,0.3,1.7,0.6,2.5,0.9c15.3,6.1,26.1,21.1,26.1,38.5c0,22.9-18.6,41.5-41.5,41.5
		C216.9,200,200.4,186.4,196.1,168.1z M138.5,173.4c9.6-9.6,24.9-21.4,42.7-21.4c3,0,6.1,0.1,9.2,0.3c-0.3,2.1-0.4,4.1-0.4,6.3
		c0,1.4,0.1,2.8,0.2,4.1c-2.9-0.2-5.9-0.3-9-0.3C163.7,162.4,148.7,168,138.5,173.4z M17.9,171v-12.1c13.5-3.1,34.1-7,52.8-7
		c17.7,0,33.1,11.8,42.7,21.4c-10.2-5.3-25.2-11-42.7-11C45.6,162.4,25.6,168.3,17.9,171z M5,15.2C12.7,13.1,43.7,5,70.7,5
		c17.7,0,33.1,11.8,42.7,21.4c2.2,2.2,4.1,4.3,5.7,6.1c2.2,2.6,3.8,4.7,4.5,5.6v0.4V177c-8.5-10.3-28.1-30-52.8-30
		c-18.6,0-39,3.7-52.8,6.9c-0.9,0.2-1.7,0.4-2.5,0.6c-0.9,0.2-1.7,0.4-2.5,0.6c-3.3,0.8-6,1.5-7.9,2V15.2z M138.6,26.4
		C148.1,16.8,163.5,5,181.2,5c27,0,58,8.1,65.7,10.2v98c-2.6-0.6-5.2-1-7.9-1.1c-0.8,0-1.7-0.1-2.5-0.1c0,0,0,0,0,0
		c-0.4,0-0.8,0-1.2,0v-8.9v-3V85.7H234h-1.3V66.1H225h-3h-7.7v19.7h-1.7v-0.6c0-2.1-1.6-3.8-3.7-4l13.8-49.7
		c0.5-0.3,0.9-0.7,1.1-1.2l0,0c0.6-1.3,0-2.9-1.3-3.5c-0.6-0.3-1.4-0.3-2-0.1c-0.7,0.2-1.2,0.7-1.5,1.4c0,0,0,0,0,0
		c-0.1,0-0.3,0-0.4,0.1L200.5,35c-0.3-0.3-0.7-0.6-1.1-0.7c-0.7-0.2-1.4-0.1-2,0.2c-0.1,0.1-0.2,0.1-0.3,0.2l-1.7-0.6l0.2-0.5
		c0.3-0.9,0.3-1.9-0.1-2.7c-0.4-0.9-1.1-1.5-2-1.8l-1.5-0.5c-0.9-0.3-1.9-0.3-2.7,0.1c-0.9,0.4-1.5,1.1-1.8,2l-1.3,3.7
		c-3.7,0-7.5,1.7-10.2,4.5c-0.7,0.7-1.3,1.5-1.8,2.2l-1.1,1.6l7.9,2.8c-0.2,0.6-0.3,1.2-0.3,1.8c0,2.3,1.5,4.4,3.6,5.1
		c0.6,0.2,1.2,0.3,1.8,0.3c1.6,0,3.2-0.7,4.2-2c0.4-0.4,0.6-1,0.8-1.6l7.9,2.8l0.2-1.9c0.1-0.9,0.1-1.9,0-2.9v0c-0.3-4-2.1-7.6-5-10
		l0.1-0.3l1.6,0.6c0.1,0.2,0.1,0.4,0.2,0.6c0.5,0.9,1.4,1.4,2.3,1.4c0.4,0,0.8-0.1,1.2-0.3c0.5-0.3,0.9-0.6,1.1-1.1c0,0,0,0,0,0
		l18.6-6.9c0,0,0.1,0.1,0.1,0.1l-13.9,50h-0.4c-0.9,0-1.8,0.3-2.5,0.9V54.3h-44.1v28.3h16.5v3.1h-29v44.8c0,0.8,0.7,1.5,1.5,1.5
		s1.5-0.7,1.5-1.5v-1.1V88.7h26h11.1h15h4.6h0.3v11.4v3v11.4v3v5.6c-7.2,6.2-12.5,14.5-14.9,24.1c-3.4-0.2-6.8-0.3-10.1-0.3
		c-24.7,0-44.3,19.8-52.8,30V38.6v-0.4c0.7-1,2.2-3,4.5-5.6C134.5,30.7,136.4,28.6,138.6,26.4z M189,45.1l-6.6-2.3l-4.6-1.7
		c0.1-0.1,0.2-0.2,0.3-0.3c2.9-3.1,7.6-4.4,11.4-3.1c3.7,1.3,6.6,5.3,6.8,9.6c0,0.1,0,0.3,0,0.4L189,45.1z M188.3,48
		c-0.1,0.3-0.2,0.5-0.4,0.7c-0.7,0.8-1.7,1.1-2.7,0.7c-1-0.3-1.6-1.3-1.6-2.3c0-0.2,0.1-0.5,0.2-0.8l2.3,0.8L188.3,48z M188.7,35.8
		l0.5-1.3l1.1-3c0.1-0.2,0.2-0.3,0.3-0.3c0.1,0,0.2-0.1,0.4,0l1.5,0.5c0.2,0.1,0.3,0.2,0.3,0.3c0,0.1,0.1,0.2,0,0.4l-1.1,3l-0.5,1.3
		c0,0,0,0,0,0l-1.3-0.5c0,0,0,0,0,0h0L188.7,35.8z M209.2,117.6h5.1c-1.8,1-3.5,2.1-5.1,3.2V117.6z M209.2,114.6v-11.4h23v9
		c-3.9,0.3-7.6,1.2-11.1,2.4H209.2z M208.5,84.1c0.6,0,1,0.5,1,1v0.6H208h-1.8h-1.9v-0.6c0-0.6,0.5-1,1-1H208.5z M209.2,88.7h3.3
		h1.7h7.7h3h7.3v11.4h-23V88.7z M229.6,85.7H225V69.1h4.7V85.7z M222,85.7h-4.7V69.1h4.7V85.7z M201.3,85.2v0.6h-15v-3.1h15.9
		C201.7,83.3,201.3,84.2,201.3,85.2z M199.9,79.6h-13.5v0h-11.1v0h-13.5V57.3h38.1V79.6z M178.2,82.6L178.2,82.6l5.1,0v0v3.1h-5.1
		V82.6z"/>
	<path d="M260.4,138.5c-0.9-0.7-1.9-0.9-3-0.8c-1.1,0.1-2,0.7-2.7,1.5l-2.9,3.7l-2.5,3.3l-2.5,3.3l-4.8,6.3l-1.7,2.2l-1.4,1.9
		l-0.2,0.3l-2.3,2.9l-2.5,3.3l-2.4,3.1l-13.8-12.9c-1.6-1.5-4.2-1.4-5.7,0.2c-0.7,0.8-1.1,1.8-1.1,2.9c0,1.1,0.5,2.1,1.3,2.8
		l4.1,3.8l3.7,3.4l3.9,3.6l5.5,5.1c0.7,0.7,1.7,1.1,2.7,1.1c0.1,0,0.2,0,0.3,0c1.1-0.1,2.2-0.7,2.9-1.6l0.6-0.8l3.1-4.1l8.2-10.7
		l1.6-2.1l0.5-0.7l2.5-3.3l9.2-12C262.5,142.4,262.1,139.9,260.4,138.5z"/>
</g>
</svg>
