<?xml version="1.0" encoding="utf-8"?>
<!-- Generator: Adobe Illustrator 24.0.0, SVG Export Plug-In . SVG Version: 6.00 Build 0)  -->
<svg version="1.1" id="Layer_1" xmlns="http://www.w3.org/2000/svg" xmlns:xlink="http://www.w3.org/1999/xlink" x="0px" y="0px"
	 viewBox="0 0 240.3 202.5" style="enable-background:new 0 0 240.3 202.5;" xml:space="preserve">
<g>
	<path d="M126.3,186.9v12.3c0,1.4,1.1,2.5,2.5,2.5c1.4,0,2.5-1.1,2.5-2.5v-12.3h-2.5H126.3z"/>
	<path d="M237.8,122.3c-1.4,0-2.5,1.1-2.5,2.5v7.2h-5.2v-3.5c0-8.8-7.2-15.9-15.9-15.9h-28.3v-7h17.3c14.9,0,26.9-12.1,26.9-26.9
		V62.6c0-20-16.3-36.2-36.2-36.2h-21.1c-20,0-36.2,16.3-36.2,36.2V64h2.5h2.5v-1.4c0-17.2,14-31.2,31.2-31.2h21.1
		c17.2,0,31.2,14,31.2,31.2v16.1c0,12.1-9.8,21.9-21.9,21.9h-17.3V81.3c0-1.4-1.1-2.5-2.5-2.5s-2.5,1.1-2.5,2.5v19.4h-15.6
		c1,0.7,1.9,1.6,2.8,2.5c0.7,0.8,1.3,1.6,1.9,2.5h11v7h-8.5c0.1,0.8,0.2,1.5,0.2,2.3v0.2v2.5h41.7c6,0,10.9,4.9,10.9,10.9v6v1
		c0,4.4-1.8,8.4-4.6,11.4c-1.3,1.3-2.8,2.4-4.5,3.3c-2.2,1.1-4.6,1.7-7.3,1.7h-50.9c-2.6,0-5.1-0.6-7.3-1.7
		c-1.7-0.8-3.2-1.9-4.5-3.3c-0.1-0.1-0.2-0.2-0.3-0.4h-3.2h-3h-8.3h-2.5h-2.5v2.9v21.5h2.5h2.5v-19h12.9c3.7,3.1,8.5,5,13.7,5h50.9
		c5.2,0,10-1.9,13.7-5h12.9v47.2c0,1.4,1.1,2.5,2.5,2.5s2.5-1.1,2.5-2.5v-49.7v-14.9v-9.7C240.3,123.5,239.2,122.3,237.8,122.3z
		 M230,137h5.3v9.9h-8.5C228.6,144.1,229.8,140.7,230,137z"/>
	<path d="M166.1,190.6c-0.9-3-2.5-5.7-4.6-7.9c-3.7-3.9-8.8-6.3-14.6-6.3h-15.7h-2.5h-2.5h-6.1h-5.5v-5.5v-24.3v-5.5h5.5h6.1h2.5
		h2.5h6h2.6h2.7h12.4c6.7,0,12.1-5.4,12.1-12.1v-11.4v-2.5v-0.2c0-0.8-0.1-1.5-0.2-2.3c-0.5-2.8-2-5.2-4.1-7
		c-2.1-1.8-4.8-2.8-7.8-2.8H152h-0.6h-5.3c0.3-0.9,0.7-1.7,1-2.7c0.3-0.8,0.5-1.7,0.7-2.6c0-0.1,0-0.1,0.1-0.2
		c0.2-0.8,0.3-1.7,0.5-2.5c0,0,0-0.1,0-0.1c0.3-1.7,0.4-3.5,0.5-5.4h0.9c2,0,3.7-1.1,4.6-2.8c0.4-0.7,0.6-1.6,0.6-2.5v-9.3
		c0-2.9-2.4-5.3-5.3-5.3h-8.3H139h-2.5H76.3c-2.9,0-5.3,2.4-5.3,5.3V84c0,1.7,0.8,3.2,2.1,4.2c0.9,0.7,2,1.1,3.2,1.1h2.4
		c0.1,1.9,0.3,3.8,0.5,5.5c0.1,0.9,0.3,1.7,0.5,2.5c0.5,2,1,3.8,1.7,5.5h-5.9h-5.6h-0.3c-2,0-3.9,0.5-5.6,1.4l-2.9-3.5l-0.7-0.8
		l-3-3.5l0.7-0.3c1.5-0.8,2.7-2,3.3-3.5c0.8-1.9,0.9-4.1-0.1-6L20.5,3.9c-0.8-1.7-2.3-3-4.1-3.6c-1.8-0.6-3.7-0.5-5.4,0.4l-7,3.5
		c-3.5,1.7-4.9,6-3.2,9.5l40.8,82.6c1.1,2.2,3.1,3.6,5.4,3.9c0.3,0,0.6,0.1,1,0.1c1.1,0,2.1-0.2,3.1-0.7l1.8-0.9l3.6,4.3l0.1,0.1
		l3.6,4.3c-1.3,1.6-2.1,3.5-2.5,5.6c-0.1,0.6-0.2,1.3-0.2,1.9V129c0,6.7,5.4,12.1,12.1,12.1h34.7h5.5v5.5v24.3v5.5h-5.5H77.5
		c-5.7,0-10.9,2.4-14.6,6.3c-2.1,2.2-3.7,4.9-4.6,7.9c-2.5,0.7-4.4,3-4.4,5.8c0,3.3,2.7,6,6,6c3.3,0,6-2.7,6-6c0-2.1-1.1-3.9-2.7-5
		c0.9-2.6,2.5-4.8,4.6-6.6c2.6-2.2,5.9-3.5,9.6-3.5h26.7h5.5v1.2v4.3v4c-2.1,1-3.5,3.1-3.5,5.5c0,3.3,2.7,6,6,6c3.3,0,6-2.7,6-6
		c0-2.4-1.5-4.5-3.5-5.5v-4v-4.3v-1.2h5.5h6.1h2.5h2.5h15.7c3.6,0,7,1.3,9.6,3.5c2.1,1.7,3.7,4,4.6,6.6c-1.6,1.1-2.7,2.9-2.7,5
		c0,3.3,2.7,6,6,6c3.3,0,6-2.7,6-6C170.5,193.7,168.6,191.3,166.1,190.6z M46,94.1l-0.3-0.6l-40.5-82c-0.5-1-0.1-2.3,0.9-2.8l7-3.5
		c0.5-0.2,1.1-0.3,1.6-0.1c0.5,0.2,0.9,0.6,1.2,1l40.5,82l0.3,0.6c0.5,1,0.1,2.3-0.9,2.8l-7,3.5C47.8,95.6,46.5,95.1,46,94.1z
		 M62.4,115.4v-0.5c0-3.9,3.2-7.1,7.1-7.1h1.9h6.2H84c1.4,2.2,2.9,4,4.5,5.5c7,6.7,15.2,7.8,15.4,7.9c0,0,0,0,0,0c0.1,0,0.2,0,0.3,0
		c1.2,0,2.3-0.9,2.5-2.2c0.2-1.4-0.8-2.6-2.1-2.8c0,0,0,0,0,0c-0.3,0-3.9-0.5-8-2.9c-2.1-1.2-4.4-3-6.5-5.5h8.1h31.3h8.1
		c-2.1,2.5-4.3,4.3-6.5,5.5c-4,2.3-7.5,2.8-7.9,2.9c0,0,0,0,0,0c-1.4,0.2-2.3,1.4-2.2,2.8c0.2,1.3,1.2,2.2,2.5,2.2
		c0.1,0,0.2,0,0.3,0h0c0.1,0,8.4-1.2,15.4-7.9c1.6-1.5,3.1-3.3,4.5-5.5h6.3h4.9c3.1,0,5.8,2,6.7,4.8c0.2,0.7,0.4,1.5,0.4,2.3v0.2
		v2.5V129c0,3.9-3.2,7.1-7.1,7.1h-13.3h-0.6H139h-2.5h-5.3h-2.5h-1.9h-0.6h-6.5h-7.6h-7.6H69.5c-3.9,0-7.1-3.2-7.1-7.1V115.4z
		 M76,84v-3.2v-6c0-0.2,0.1-0.3,0.3-0.3h60.2h2.5h2.5h8.3c0.2,0,0.3,0.1,0.3,0.3v5.1V84c0,0.2-0.1,0.3-0.3,0.3h-7.6h-2.6h-0.7h-1.9
		H88.6H76.3C76.2,84.3,76,84.2,76,84z M84.8,97.3c-0.2-0.8-0.4-1.6-0.5-2.5c-0.3-1.7-0.5-3.5-0.6-5.5h5.5h49.2h0.3h2.7h2.5
		c-0.1,1.3-0.2,2.5-0.3,3.6c-0.1,0.6-0.2,1.3-0.3,1.9c-0.1,0.5-0.2,1-0.3,1.4c-0.1,0.4-0.2,0.7-0.3,1.1c-0.5,2-1.2,3.9-2,5.5h-6.4
		H93.2h-6.4C86,101.2,85.4,99.3,84.8,97.3z"/>
</g>
</svg>
