<?xml version="1.0" encoding="utf-8"?>
<!-- Generator: Adobe Illustrator 24.0.0, SVG Export Plug-In . SVG Version: 6.00 Build 0)  -->
<svg version="1.1" id="Layer_1" xmlns="http://www.w3.org/2000/svg" xmlns:xlink="http://www.w3.org/1999/xlink" x="0px" y="0px"
	 viewBox="0 0 170.5 120.1" style="enable-background:new 0 0 170.5 120.1;" xml:space="preserve">
<g>
	<path d="M76.6,109.2c-6.7,3-14.3,4.7-22.3,4.7c-7.5,0-14.7-1.4-21.4-4.3c-2-0.9-4.3-1-6.3-0.3l-12.4,5.8c-0.2,0-0.5,0-0.7-0.1
		c-0.3-0.2-0.6-0.6-0.6-1.1l1.6-14.5l0-0.2c-0.1-2-0.8-3.9-1.9-5.4c-5-7-7.7-15-7.7-23.3C5,48.3,24,30,48.4,27.4
		c0.5-0.9,1.1-1.8,1.7-2.7c0.6-0.9,1.2-1.8,1.8-2.6C23.1,23.3,0,44.5,0,70.5c0,9.3,3,18.4,8.7,26.2c0.5,0.7,0.8,1.6,0.9,2.5
		l-1.6,14.5l0,0.2c0.1,2.1,1.2,4,2.8,5.1c1,0.7,2.1,1,3.3,1c0.6,0,1.2-0.1,1.8-0.3l12.4-5.8c1-0.3,2-0.1,2.6,0.2
		c7.3,3.1,15.2,4.7,23.4,4.7c10.4,0,20.1-2.6,28.4-7.2c-1-0.4-2.1-0.8-3.1-1.2C78.6,110.1,77.6,109.6,76.6,109.2z"/>
	<path d="M160.5,85.8c6.5-9,9.9-19.4,9.9-30.1C170.5,25,142.5,0,108,0C87.6,0,69.5,8.7,58.1,22.2c-0.7,0.8-1.3,1.6-1.9,2.4
		c-0.6,0.8-1.2,1.6-1.8,2.5c-5.6,8.3-8.9,18.1-8.9,28.5c0,22.5,15,41.9,36.6,50.6c1,0.4,2,0.8,2.9,1.1c1,0.3,2,0.7,3,1
		c6.3,1.9,13,2.9,19.9,2.9c9.4,0,18.5-1.8,26.9-5.4c1.1-0.5,2.3-0.6,3.3-0.2l14,6.6l0.3,0.1c0.7,0.2,1.3,0.3,2,0.3
		c1.3,0,2.5-0.4,3.6-1.1c1.8-1.2,3-3.3,3.1-5.6l0-0.2l-1.9-16.8C159.5,87.7,159.9,86.6,160.5,85.8z M62.1,25.1
		c0.6-0.8,1.3-1.5,2-2.2C74.7,12,90.4,5,108,5c31.7,0,57.5,22.7,57.5,50.6c0,9.7-3.1,19.1-9,27.2c-1.2,1.7-1.9,3.8-2.1,6l0,0.2
		l1.9,16.8c-0.1,0.7-0.4,1.3-0.9,1.6c-0.3,0.2-0.6,0.3-1.1,0.2l-14-6.6l-0.3-0.1c-2.2-0.7-4.7-0.6-7,0.4c-7.8,3.3-16.2,5-24.9,5
		c-5.2,0-10.3-0.6-15.1-1.8c-1-0.2-1.9-0.5-2.9-0.8c-1-0.3-1.9-0.6-2.9-0.9c-21.4-7.4-36.6-25.7-36.6-47.2c0-10.4,3.6-20.1,9.8-28.2
		C60.9,26.7,61.5,25.9,62.1,25.1z"/>
</g>
</svg>
