<?xml version="1.0" encoding="utf-8"?>
<!-- Generator: Adobe Illustrator 24.0.0, SVG Export Plug-In . SVG Version: 6.00 Build 0)  -->
<svg version="1.1" id="Layer_1" xmlns="http://www.w3.org/2000/svg" xmlns:xlink="http://www.w3.org/1999/xlink" x="0px" y="0px"
	 viewBox="0 0 153.9 205" style="enable-background:new 0 0 153.9 205;" xml:space="preserve">
<g>
	<path d="M25,94.1c0.6,0.6,1.4,0.9,2.2,0.9l0.3,0c0.9-0.1,1.8-0.5,2.3-1.3l13.4-17.4c1.1-1.4,0.8-3.5-0.6-4.6
		c-1.4-1.1-3.5-0.8-4.6,0.6L26.8,86.9l-6.2-5.8c-1.3-1.2-3.4-1.2-4.6,0.2c-1.2,1.3-1.2,3.4,0.2,4.6L25,94.1z"/>
	<path d="M42.6,96.7c-1.4-1.1-3.5-0.8-4.6,0.6l-11.2,14.5l-6.2-5.8c-0.6-0.6-1.5-0.9-2.4-0.9c-0.9,0-1.7,0.4-2.3,1
		c-1.2,1.3-1.2,3.4,0.2,4.6l8.8,8.2c0.6,0.6,1.4,0.9,2.2,0.9l0.3,0c0.9-0.1,1.8-0.5,2.3-1.3l13.4-17.4c0.5-0.7,0.8-1.6,0.7-2.4
		C43.7,98,43.3,97.3,42.6,96.7z"/>
	<path d="M42.6,121.7c-1.4-1.1-3.5-0.8-4.6,0.6l-11.2,14.5l-6.2-5.8c-0.6-0.6-1.5-0.9-2.4-0.9c-0.9,0-1.7,0.4-2.3,1
		c-1.2,1.3-1.2,3.4,0.2,4.6l8.8,8.2c0.6,0.6,1.4,0.9,2.2,0.9l0.3,0c0.9-0.1,1.8-0.5,2.3-1.3l13.4-17.4
		C44.3,124.9,44,122.8,42.6,121.7z"/>
	<path d="M64.8,166.5c-5.1-2.1-5.9-3.2-5.9-4.9c0-1.6,1.1-3.3,4.4-3.3c3.3,0,5.3,1.2,6.2,1.7l1.5,0.9l2.5-6.5l-1.1-0.6
		c-1.9-1.1-4-1.8-6.5-2v-5.5h-6.4v5.9c-5.1,1.3-8.4,5.2-8.4,10.1c0,6.2,5.1,9,10.1,11c4.7,1.9,5.3,3.6,5.3,5.2c0,2.3-2,3.9-5.1,3.9
		c-2.5,0-5.1-0.8-7.1-2.1l-1.6-1.1l-2.4,6.6l0.9,0.7c1.9,1.4,4.9,2.3,7.8,2.6v1.1v2.5v2.1h6.5v-2.1v-2.5v-1.5
		c5.3-1.4,8.7-5.5,8.7-10.6C74.3,171.2,69.2,168.3,64.8,166.5z"/>
	<path d="M151.4,0H62.9c-1.4,0-2.5,1.1-2.5,2.5v24.8H2.5c-1.4,0-2.5,1.1-2.5,2.5v162.8c0,1.4,1.1,2.5,2.5,2.5H37
		c6.3,6.1,14.8,9.9,24.2,9.9s18-3.8,24.2-9.9h2.8c6.3,6.1,14.8,9.9,24.2,9.9c19.1,0,34.7-15.6,34.7-34.7s-15.6-34.7-34.7-34.7
		c-0.7,0-1.5,0-2.2,0.1V74.2h41.1c1.4,0,2.5-1.1,2.5-2.5V2.5C153.9,1.1,152.7,0,151.4,0z M148.9,69.2h-38.6h-2.5h-2.5h-9.9
		c-0.8,0-1.6,0.4-2.1,1.1l-13.4,20V71.7c0-1.4-1.1-2.5-2.5-2.5h-12V32.3v-2.5v-2.5V5h83.4V69.2z M142.2,170.3
		c0,16.4-13.3,29.7-29.7,29.7c-6,0-11.6-1.8-16.3-4.9c-1.2-0.8-2.2-1.6-3.3-2.5c-0.9-0.8-1.7-1.6-2.5-2.5c-0.1-0.1-0.3-0.3-0.4-0.4
		c-0.6-0.7-1.1-1.4-1.6-2.1c-0.5-0.8-1-1.5-1.5-2.3c-2.6-4.4-4.1-9.5-4.1-15s1.5-10.6,4.1-15c0.5-0.8,1-1.6,1.5-2.3
		c0.5-0.7,1.1-1.4,1.6-2.1c3.9-4.6,9.2-7.9,15.3-9.4c0.8-0.2,1.7-0.4,2.5-0.5c0.8-0.1,1.7-0.2,2.5-0.3c0.7-0.1,1.5-0.1,2.2-0.1
		C128.9,140.6,142.2,153.9,142.2,170.3z M77.5,195.1c-4.7,3.1-10.3,4.9-16.3,4.9c-6,0-11.6-1.8-16.3-4.9c-1.2-0.8-2.2-1.6-3.3-2.5
		c-0.9-0.8-1.7-1.6-2.5-2.5c-4.7-5.3-7.6-12.2-7.6-19.8c0-16.4,13.3-29.7,29.7-29.7c9,0,17,4,22.5,10.3c-3.7,5.5-5.9,12.2-5.9,19.4
		s2.2,13.8,5.9,19.4c-0.1,0.1-0.3,0.3-0.4,0.4c-0.8,0.9-1.6,1.7-2.5,2.5C79.7,193.5,78.7,194.4,77.5,195.1z M105.3,136.4
		c-7.2,1.5-13.6,5.3-18.4,10.6c-6.4-7-15.5-11.3-25.6-11.3c-19.1,0-34.7,15.6-34.7,34.7c0,7.4,2.3,14.2,6.2,19.8H5V32.3h55.4v39.4
		c0,1.4,1.1,2.5,2.5,2.5h12v24.3c0,1.1,0.7,2.1,1.8,2.4c0.2,0.1,0.5,0.1,0.7,0.1c0.8,0,1.6-0.4,2.1-1.1l17.2-25.7h8.5V136.4z"/>
	<path d="M83,32.3h40.9c1.4,0,2.5-1.1,2.5-2.5s-1.1-2.5-2.5-2.5H83c-1.4,0-2.5,1.1-2.5,2.5S81.6,32.3,83,32.3z"/>
	<path d="M81.4,53h10H95h3.5H137c1.4,0,2.5-1.1,2.5-2.5S138.4,48,137,48H93.5H90h-3.5h-5c-1.4,0-2.5,1.1-2.5,2.5S80.1,53,81.4,53z"
		/>
	<path d="M107.8,153.8c-0.8-0.4-1.6-0.7-2.5-0.9c-0.5-0.1-1.1-0.2-1.6-0.2c-4.7,0-8.5,3.8-8.5,8.5s3.8,8.5,8.5,8.5
		c0.6,0,1.1-0.1,1.6-0.2c0.9-0.2,1.7-0.5,2.5-0.9c1-0.5,1.8-1.3,2.5-2.1c1.2-1.5,1.9-3.3,1.9-5.3s-0.7-3.9-1.9-5.3
		C109.6,155,108.7,154.3,107.8,153.8z M105.3,164.3c-0.5,0.3-1,0.4-1.6,0.4c-1.9,0-3.5-1.6-3.5-3.5s1.6-3.5,3.5-3.5
		c0.6,0,1.1,0.2,1.6,0.4c1.1,0.6,1.9,1.7,1.9,3.1S106.4,163.7,105.3,164.3z"/>
	<path d="M120.7,171.7c-4.7,0-8.5,3.8-8.5,8.5s3.8,8.5,8.5,8.5c4.7,0,8.5-3.8,8.5-8.5S125.4,171.7,120.7,171.7z M120.7,183.7
		c-1.9,0-3.5-1.6-3.5-3.5s1.6-3.5,3.5-3.5c1.9,0,3.5,1.6,3.5,3.5S122.7,183.7,120.7,183.7z"/>
	<path d="M107.8,172.2l-2.5,3.1l-7.4,9.3c-0.9,1.1-0.7,2.7,0.4,3.5c0.5,0.4,1,0.5,1.6,0.5c0.7,0,1.5-0.3,2-0.9l3.5-4.4l2.5-3.1
		l2.5-3.1l16.3-20.3c0.9-1.1,0.7-2.7-0.4-3.5c-1.1-0.9-2.7-0.7-3.5,0.4l-12.4,15.5L107.8,172.2z"/>
</g>
</svg>
