<?xml version="1.0" encoding="utf-8"?>
<!-- Generator: Adobe Illustrator 24.0.0, SVG Export Plug-In . SVG Version: 6.00 Build 0)  -->
<svg version="1.1" id="Layer_1" xmlns="http://www.w3.org/2000/svg" xmlns:xlink="http://www.w3.org/1999/xlink" x="0px" y="0px"
	 viewBox="0 0 242.9 205" style="enable-background:new 0 0 242.9 205;" xml:space="preserve">
<style type="text/css">
	.st0{fill:none;}
</style>
<g>
	<path class="st0" d="M155.8,114.6c0.1-1,0.8-1.8,1.8-2c0.9-0.3,2,0,2.6,0.8l3.5,4.1h0.3l6.3-12.2c0.5-0.9,1.4-1.4,2.3-1.4
		c1,0,1.8,0.7,2.2,1.6l2.4,6l4.8-4.2L174.5,5H156l-9.2,112.4h8.5L155.8,114.6z"/>
	<g>
		<path d="M31.1,72.4h-15c-1.4,0-2.5,1.1-2.5,2.5v17c0,1.4,1.1,2.5,2.5,2.5h15c1.4,0,2.5-1.1,2.5-2.5v-17
			C33.6,73.6,32.5,72.4,31.1,72.4z M28.6,89.4h-10v-12h10V89.4z"/>
		<path d="M56.9,72.4h-15c-1.4,0-2.5,1.1-2.5,2.5v17c0,1.4,1.1,2.5,2.5,2.5h15c1.4,0,2.5-1.1,2.5-2.5v-17
			C59.4,73.6,58.2,72.4,56.9,72.4z M54.4,89.4h-10v-12h10V89.4z"/>
		<path d="M82.6,72.4h-15c-1.4,0-2.5,1.1-2.5,2.5v17c0,1.4,1.1,2.5,2.5,2.5h15c1.4,0,2.5-1.1,2.5-2.5v-17
			C85.1,73.6,84,72.4,82.6,72.4z M80.1,89.4h-10v-12h10V89.4z"/>
		<path d="M31.1,100.5h-15c-1.4,0-2.5,1.1-2.5,2.5v17c0,1.4,1.1,2.5,2.5,2.5h15c1.4,0,2.5-1.1,2.5-2.5v-17
			C33.6,101.6,32.5,100.5,31.1,100.5z M28.6,117.4h-10v-12h10V117.4z"/>
		<path d="M56.9,100.5h-15c-1.4,0-2.5,1.1-2.5,2.5v17c0,1.4,1.1,2.5,2.5,2.5h15c1.4,0,2.5-1.1,2.5-2.5v-17
			C59.4,101.6,58.2,100.5,56.9,100.5z M54.4,117.4h-10v-12h10V117.4z"/>
		<path d="M82.6,100.5h-15c-1.4,0-2.5,1.1-2.5,2.5v17c0,1.4,1.1,2.5,2.5,2.5h15c1.4,0,2.5-1.1,2.5-2.5v-17
			C85.1,101.6,84,100.5,82.6,100.5z M80.1,117.4h-10v-12h10V117.4z"/>
		<path d="M31.1,128.5h-15c-1.4,0-2.5,1.1-2.5,2.5v17c0,1.4,1.1,2.5,2.5,2.5h15c1.4,0,2.5-1.1,2.5-2.5v-17
			C33.6,129.6,32.5,128.5,31.1,128.5z M28.6,145.5h-10v-12h10V145.5z"/>
		<path d="M56.9,128.5h-15c-1.4,0-2.5,1.1-2.5,2.5v17c0,1.4,1.1,2.5,2.5,2.5h15c1.4,0,2.5-1.1,2.5-2.5v-17
			C59.4,129.6,58.2,128.5,56.9,128.5z M54.4,145.5h-10v-12h10V145.5z"/>
		<path d="M82.6,128.5h-15c-1.4,0-2.5,1.1-2.5,2.5v17c0,1.4,1.1,2.5,2.5,2.5h15c1.4,0,2.5-1.1,2.5-2.5v-17
			C85.1,129.6,84,128.5,82.6,128.5z M80.1,145.5h-10v-12h10V145.5z"/>
		<path d="M242.3,151.1l-10.4-11.9l6-2.4c0.9-0.4,1.5-1.2,1.6-2.2s-0.5-1.9-1.4-2.3l-12.3-6.4l4.3-3.7c0.7-0.6,1-1.7,0.8-2.6
			c-0.3-0.9-1.1-1.6-2-1.8l-17.9-2.6l3.1-6.6c0.4-0.9,0.3-1.9-0.4-2.7c-0.6-0.7-1.7-1-2.6-0.8l-17.8,5.2V103c0-1-0.6-1.9-1.5-2.3
			c-0.9-0.4-1.9-0.3-2.7,0.4l-2.4,2.1L179.3,2.3C179.3,1,178.2,0,176.9,0h-23.1c-1.3,0-2.4,1-2.5,2.3l-9.4,115.1H98.7V63.3
			c0-1.4-1.1-2.5-2.5-2.5H2.5C1.1,60.8,0,62,0,63.3v103.5c0,1.4,1.1,2.5,2.5,2.5h93.7h44.1h2.3c-0.4,0.4-0.7,1-0.7,1.6
			c0,1,0.5,1.9,1.4,2.3l12.3,6.4l-4.3,3.7c-0.7,0.6-1,1.7-0.8,2.6c0.3,0.9,1.1,1.6,2,1.8l17.9,2.6l-3.1,6.6
			c-0.4,0.9-0.3,1.9,0.4,2.7c0.6,0.7,1.7,1,2.6,0.8l17.8-5.2v7.4c0,1,0.6,1.9,1.5,2.3c0.3,0.2,0.7,0.2,1,0.2c0.6,0,1.2-0.2,1.6-0.6
			l11.9-10.4l2.4,6c0.4,0.9,1.2,1.5,2.2,1.6c1,0,1.9-0.5,2.3-1.4l6.4-12.3l3.7,4.3c0.6,0.7,1.7,1,2.6,0.8c0.9-0.3,1.6-1.1,1.8-2
			l2.6-17.9l6.6,3.1c0.9,0.4,1.9,0.3,2.7-0.4c0.7-0.6,1-1.7,0.8-2.6l-5.2-17.8h7.4c1,0,1.9-0.6,2.3-1.5S243,151.8,242.3,151.1z
			 M230.3,150.2c-1.4,0-2.5,1.3-2.5,2.6c0,0.6,0,1.2,0,1.9c0,0.3,0,0.6,0.1,0.8l4,13.6l-4.1-1.9c-0.6-0.3-1.3-0.3-1.9-0.1
			c-0.6,0.2-1.1,0.7-1.4,1.3c-0.3,0.5-0.5,1.1-0.8,1.6c-0.1,0.3-0.2,0.5-0.3,0.8l-2,13.8l-2.5-2.9c-0.5-0.6-1.4-0.9-2.2-0.9
			c-0.8,0.1-1.6,0.6-1.9,1.3l-5.5,10.7l-1.6-4.1c-0.2-0.6-0.7-1.1-1.3-1.4c-0.6-0.3-1.3-0.3-1.9,0l-0.1,0c-0.3,0.1-0.5,0.3-0.7,0.4
			l-10.4,9.1v-4.5c0-1.4-1.1-2.5-2.5-2.5c-0.7,0-1.5,0-2.3-0.1c-0.1,0-0.1,0-0.2,0c-0.2,0-0.5,0-0.7,0.1l-13.2,3.9l1.9-4
			c0.6-1.2,0-2.7-1.2-3.3c-0.6-0.3-1.2-0.6-1.7-0.9c-0.3-0.1-0.5-0.2-0.8-0.3l-13.7-2l2.9-2.5c0.6-0.5,1-1.4,0.9-2.2
			c-0.1-0.8-0.6-1.6-1.3-1.9l-10.7-5.5l4.2-1.6c0.2-0.1,0.4-0.2,0.6-0.3c0.4-0.3,0.8-0.8,0.9-1.4c0.1-0.4,0.1-0.7,0-1.1
			c-0.1-0.4-0.3-0.8-0.6-1.1l-1.2-1.4l-7.9-9.1h4.6c1.4,0,2.5-1.1,2.5-2.5c0-0.7,0-1.3,0.1-2c0-0.3,0-0.6-0.1-0.8l-4-13.6l4.2,2
			c1.3,0.6,2.7,0,3.3-1.2c0.2-0.4,0.4-0.9,0.6-1.3c0.1-0.3,0.2-0.5,0.3-0.8l1.8-12.5l0.2-1.7l1.4,1.7l1.1,1.3
			c0.5,0.6,1.4,0.9,2.2,0.9c0.8-0.1,1.6-0.6,1.9-1.3l0.4-0.8l1.3-2.5l1.3-2.5l2.6-5l1.6,4.2c0.1,0.3,0.3,0.6,0.5,0.8
			c0.3,0.3,0.7,0.6,1.2,0.7c0.8,0.2,1.6,0,2.2-0.5l0.2-0.2l4.4-3.8l4.7-4.1l1.1-1v4.7c0,1.4,1.1,2.5,2.5,2.5c0.5,0,1.1,0,1.6,0
			c0.3,0,0.5,0,0.8-0.1l14-4.1l-2,4.3c-0.3,0.6-0.3,1.3-0.1,1.9c0.2,0.6,0.7,1.1,1.3,1.4c0.4,0.2,0.8,0.4,1.2,0.6
			c0.2,0.1,0.5,0.2,0.8,0.2l14.4,2.1l-2.9,2.5c-0.6,0.5-1,1.4-0.9,2.2c0.1,0.8,0.6,1.6,1.3,1.9l10.7,5.5l-4.2,1.6
			c-0.8,0.3-1.3,0.9-1.5,1.7s0,1.6,0.5,2.2l9.1,10.4H230.3z M5,65.8h88.7v54.1v44.4H5V65.8z M98.7,164.3v-41.9h42.7h5h8.2l-1.4,10.1
			l-6.6-3.1c-0.2-0.1-0.5-0.2-0.7-0.2c-0.7-0.1-1.4,0.1-1.9,0.6c-0.7,0.6-1,1.7-0.8,2.6l1.9,6.6l3.3,11.2h-4.2h-3.3
			c-0.7,0-1.4,0.3-1.8,0.8c-0.2,0.2-0.3,0.4-0.4,0.7c-0.4,0.8-0.3,1.7,0.2,2.4c0.1,0.1,0.1,0.2,0.2,0.3l4.4,5l4.3,4.9H143h-5H98.7z
			 M156,5h18.5l7.3,102.4l-4.8,4.2l-2.4-6c-0.4-0.9-1.2-1.5-2.2-1.6c-1,0-1.9,0.5-2.3,1.4l-6.3,12.2h-0.3l-3.5-4.1
			c-0.6-0.7-1.7-1-2.6-0.8c-0.9,0.3-1.6,1.1-1.8,2l-0.4,2.8h-8.5L156,5z"/>
		<path d="M199.5,142.5c-0.8-0.7-1.6-1.2-2.5-1.7c-1.9-1-4.1-1.6-6.4-1.6c-0.5,0-1,0-1.5,0.1c-1.8,0.2-3.4,0.7-4.9,1.5
			c-4.3,2.3-7.2,6.8-7.2,12c0,4.8,2.5,9,6.2,11.4c2.1,1.4,4.7,2.2,7.4,2.2c0.1,0,0.3,0,0.4,0c3.2-0.1,6.1-1.3,8.4-3.3
			c1-0.8,1.8-1.8,2.5-2.8c1.4-2.2,2.3-4.8,2.3-7.6s-0.8-5.4-2.3-7.6C201.3,144.3,200.5,143.3,199.5,142.5z M190.8,161.5
			C190.7,161.5,190.7,161.5,190.8,161.5c-2,0-3.7-0.6-5.1-1.6c-2.2-1.6-3.6-4.1-3.6-7c0-2.4,1-4.6,2.7-6.2c1.3-1.2,3-2.1,4.8-2.3
			c0.4-0.1,0.8-0.1,1.2-0.1c2.5,0,4.8,1.1,6.4,2.8c1.4,1.5,2.3,3.6,2.3,5.8s-0.9,4.3-2.3,5.8C195.5,160.4,193.2,161.5,190.8,161.5z"
			/>
	</g>
</g>
</svg>
