<?xml version="1.0" encoding="utf-8"?>
<!-- Generator: Adobe Illustrator 24.0.0, SVG Export Plug-In . SVG Version: 6.00 Build 0)  -->
<svg version="1.1" id="Layer_1" xmlns="http://www.w3.org/2000/svg" xmlns:xlink="http://www.w3.org/1999/xlink" x="0px" y="0px"
	 viewBox="0 0 261.9 205" style="enable-background:new 0 0 261.9 205;" xml:space="preserve">
<g>
	<path d="M47.5,173.9c-6.2,0-11.2,5-11.2,11.2s5,11.2,11.2,11.2s11.2-5,11.2-11.2S53.7,173.9,47.5,173.9z M41.3,185.1
		c0-3.4,2.8-6.2,6.2-6.2s6.2,2.8,6.2,6.2s-2.8,6.2-6.2,6.2S41.3,188.5,41.3,185.1z"/>
	<path d="M241.4,0H73.2C61.9,0,52.7,9.2,52.7,20.5v33.4H20.5C9.2,53.9,0,63.1,0,74.4v110.1C0,195.8,9.2,205,20.5,205H74
		c11.3,0,20.5-9.2,20.5-20.5v-40.6h52.2c-0.5,14.6-3.1,46.6-10.4,54.6c-1,1.1-1.3,2.8-0.7,4.2c0.6,1.4,2,2.3,3.6,2.3h36
		c1.5,0,2.9-0.9,3.6-2.3c0.6-1.4,0.4-3-0.7-4.2c-7.3-8-9.8-40-10.4-54.6h73.6c11.3,0,20.5-9.2,20.5-20.5V20.5
		C261.9,9.2,252.7,0,241.4,0z M256.9,123.4c0,8.6-7,15.5-15.5,15.5h-76.2h-15.8H94.5H92h-2.5H73.2c-8.6,0-15.5-7-15.5-15.5V58.9
		v-2.5v-2.5V20.5C57.7,12,64.6,5,73.2,5h168.2c8.6,0,15.5,7,15.5,15.5V123.4z M162.8,143.9c0.3,10.1,2.1,43.7,10.2,56.1h-31.4
		c8.1-12.4,9.9-46,10.2-56.1H162.8z M89.5,184.5c0,8.6-7,15.5-15.5,15.5H20.5C12,200,5,193,5,184.5V74.4c0-8.6,7-15.5,15.5-15.5
		h32.1v64.5c0,11.3,9.2,20.5,20.5,20.5h16.3V184.5z"/>
	<path d="M199.4,36.2c-1.8-1.4-4.1-2-6.4-1.7c-2.3,0.3-4.3,1.5-5.7,3.3l-38.7,50.3l-22.4-20.9c-3.5-3.2-9-3-12.2,0.4
		c-1.6,1.7-2.4,3.9-2.3,6.2c0.1,2.3,1.1,4.4,2.7,6l29.3,27.3c1.6,1.5,3.7,2.3,5.9,2.3c0.2,0,0.5,0,0.7,0c2.4-0.2,4.7-1.4,6.1-3.3
		L201,48.3c1.4-1.8,2-4.1,1.7-6.4C202.4,39.6,201.3,37.6,199.4,36.2z"/>
</g>
</svg>
