<?xml version="1.0" encoding="utf-8"?>
<!-- Generator: Adobe Illustrator 24.0.0, SVG Export Plug-In . SVG Version: 6.00 Build 0)  -->
<svg version="1.1" id="Layer_1" xmlns="http://www.w3.org/2000/svg" xmlns:xlink="http://www.w3.org/1999/xlink" x="0px" y="0px"
	 viewBox="0 0 210 206" style="enable-background:new 0 0 210 206;" xml:space="preserve">
<path d="M208.3,76L140,35c-1-0.6-2.3-0.7-3.4-0.1l-53,26.5c4.7-11.8,8.2-22.6,8.2-28.6C91.8,14.7,77.1,0,58.9,0
	C40.8,0,26.1,14.7,26.1,32.9c0,3.8,1.4,9.5,3.6,16.2L4.6,40.8c-1.1-0.3-2.2-0.2-3.1,0.5C0.5,41.9,0,43,0,44.1v123.5
	c0,1.5,1,2.9,2.4,3.3l74,24.3c0.9,0.3,1.8,0.2,2.7-0.2l59-29.5l66.7,40c0.6,0.3,1.2,0.5,1.8,0.5c0.6,0,1.2-0.2,1.7-0.5
	c1.1-0.6,1.8-1.8,1.8-3V79C210,77.8,209.4,76.7,208.3,76z M138,42l65,39v17.1L139.3,68c-0.8-0.4-1.6-0.3-2.3,0.1l-59.8,35.5
	l-10.9-3.3c3.6-7.5,8.6-18.2,13.3-29L138,42z M7,87.3l45,13.9c2.6,5.4,4.4,9,4.7,9.5c0.4,0.8,1.3,1.4,2.2,1.4s1.8-0.5,2.2-1.4
	c0.2-0.4,1.3-2.5,2.9-5.8l11.8,3.6l27.6,40.4l-25.9,8.2L7,126.4V87.3z M44.7,34.8c0-7.8,6.4-14.2,14.2-14.2S73.1,27,73.1,34.8
	S66.8,49,58.9,49S44.7,42.7,44.7,34.8z M81,107.2l57.3-34l62.7,29.6l-63.8,35.5l-28.7,9.1L81,107.2z M7,49l25.7,8.4
	C37.5,70.1,44,84.4,49,95L7,82.1V49z M77.2,188.1L7,165v-33.2L76.5,162c0.6,0.2,1.2,0.3,1.8,0.1l28.3-8.9l10.3,15.1L77.2,188.1z
	 M203,196.3l-63-37.8c-0.6-0.3-1.2-0.5-1.8-0.5c-0.5,0-1.1,0.1-1.6,0.4l-15.3,7.6l-9.9-14.4l27.5-8.7c0.2-0.1,0.3-0.1,0.5-0.2
	l63.6-35.3V196.3z"/>
</svg>
