<?xml version="1.0" encoding="utf-8"?>
<!-- Generator: Adobe Illustrator 24.0.0, SVG Export Plug-In . SVG Version: 6.00 Build 0)  -->
<svg version="1.1" id="Layer_1" xmlns="http://www.w3.org/2000/svg" xmlns:xlink="http://www.w3.org/1999/xlink" x="0px" y="0px"
	 viewBox="0 0 125.5 205" style="enable-background:new 0 0 125.5 205;" xml:space="preserve">
<g>
	<g>
		<path d="M18.1,78.9c0.7,0,1.3,0,1.9-0.1c3.3,24.1,20.8,49.6,41.9,49.6c14.7,0,27.7-12.4,35.3-28c11.2-9.2,17.3-20.6,18.9-23.7
			c5.6-3.1,9.4-9,9.4-15.8c0-6.7-3.6-12.5-9-15.6C115.3,16.8,107.4,0,62,0C16,0,8.4,17.3,7.4,46.3C2.9,49.6,0,54.8,0,60.8
			C0,70.8,8.1,78.9,18.1,78.9z M7.2,53.5c0.7-1.1,1.6-2,2.5-2.8c0.8-0.6,1.6-1.2,2.5-1.6c1.8-0.9,3.7-1.4,5.8-1.4
			c0.9,0,1.6,0.1,2.3,0.3c-0.3,2.6-0.5,5.4-0.7,8.3c-0.2,4.5-0.3,9.3-0.3,14.4c0,1,0,2.1,0.1,3.1c-0.5,0.1-0.9,0.1-1.5,0.1
			C10.9,73.9,5,68,5,60.8C5,58.1,5.8,55.6,7.2,53.5z M62,5c39.1,0,47.8,11.8,49.4,38.2c-1.3-0.3-2.6-0.5-4-0.5
			c-1.6,0-3.2,0.2-4.6,0.7c-3.3-18.4-13-29-40.9-29c-27.7,0-37.4,10.4-40.8,28.6c-1-0.2-2-0.3-3.1-0.3c-1.9,0-3.8,0.3-5.6,0.9
			C14.1,16.9,22.7,5,62,5z M107.4,73.9c-1.1,0-2.1-0.2-3-0.4c0-0.9,0.1-1.9,0.1-2.8c0-5.1-0.1-9.9-0.3-14.4
			c-0.1-2.7-0.3-5.3-0.6-7.8c1.1-0.5,2.3-0.7,3.8-0.7c1.5,0,2.9,0.3,4.2,0.7c0.9,0.3,1.7,0.7,2.5,1.2c0.9,0.6,1.8,1.2,2.5,2
			c2.4,2.4,3.8,5.6,3.8,9.2C120.5,68,114.6,73.9,107.4,73.9z M99.1,76.4c-0.8,6.9-2.8,14-5.8,20.6c-7,5.6-15.9,10.1-26.9,10.7v-9
			c0-1.4-1.1-2.5-2.5-2.5s-2.5,1.1-2.5,2.5v11.6c0,1.4,1.1,2.5,2.5,2.5c9.2,0,17.1-2.4,23.8-6c-6.8,9.8-15.9,16.6-25.7,16.6
			c-18.3,0-34.3-23.9-37.1-46.1c-0.1-0.9-0.2-1.8-0.3-2.7c-0.1-1.1-0.1-2.1-0.1-3.2c0-0.3,0-0.5,0-0.8c0-5.2,0.1-10,0.3-14.4
			c0.1-1.8,0.2-3.6,0.4-5.3c0.1-1.1,0.2-2.2,0.4-3.3c0.1-1,0.3-1.9,0.4-2.8c3-17.5,11.8-25.5,36-25.5c24.7,0,33.3,8.3,36.2,26.6
			c0.2,1,0.3,2.1,0.4,3.2c0.2,1.4,0.3,2.8,0.4,4.3c0.1,0.9,0.1,1.9,0.2,2.9c0.2,4,0.3,8.3,0.3,13c0,0.5,0,0.9,0,1.4
			c0,0.9,0,1.8-0.1,2.7C99.3,74.4,99.2,75.4,99.1,76.4z M101.7,88.9c1-3.4,1.8-6.9,2.2-10.4c1.1,0.2,2.2,0.4,3.5,0.4
			c0.6,0,1.2,0,1.8-0.1C107.4,81.6,105,85.2,101.7,88.9z"/>
		<path d="M100,177c-1.1-0.8-2.2-1.5-3.3-2.3c-8.5-5.8-17.6-30.6-20.3-39.6c-0.4-1.3-1.8-2.1-3.1-1.7c-1.3,0.4-2.1,1.8-1.7,3.1
			c0.4,1.4,10.6,34.2,22.3,42.2c1.1,0.7,2.2,1.5,3.3,2.3c7.5,5.1,19.5,13.3,21.9,18.8H6.4c2.4-5.6,14.4-13.7,21.9-18.8
			c1.1-0.8,2.3-1.5,3.3-2.3c11.7-8,21.9-40.8,22.3-42.2c0.4-1.3-0.3-2.7-1.7-3.1c-1.3-0.4-2.7,0.3-3.1,1.7
			c-2.8,9-11.9,33.7-20.3,39.6c-1.1,0.7-2.2,1.5-3.3,2.3C13.6,185.2,0,194.4,1,202.8c0.1,1.3,1.2,2.2,2.5,2.2H122
			c1.3,0,2.3-0.9,2.5-2.2C125.5,194.4,111.9,185.2,100,177z"/>
	</g>
</g>
</svg>
