<?xml version="1.0" encoding="utf-8"?>
<!-- Generator: Adobe Illustrator 24.0.0, SVG Export Plug-In . SVG Version: 6.00 Build 0)  -->
<svg version="1.1" id="Layer_1" xmlns="http://www.w3.org/2000/svg" xmlns:xlink="http://www.w3.org/1999/xlink" x="0px" y="0px"
	 viewBox="0 0 275 205" style="enable-background:new 0 0 275 205;" xml:space="preserve">
<g>
	<path d="M275,137.7l-15.8-64.6l9.5-6.5c0.5-0.4,0.9-1,1-1.6c0.1-0.7,0-1.3-0.4-1.9L226.8,1.1c-0.8-1.1-2.3-1.4-3.5-0.7L86.3,94.1
		c-0.5,0.4-0.9,1-1,1.6c0,0.2,0,0.3,0,0.5l-51.5-8.8c-5.4-0.9-10.8,0.3-15.3,3.5c-4.5,3.2-7.4,7.9-8.4,13.3l-9.7,57.1
		c-1.9,11.2,5.6,21.8,16.8,23.7l115.7,19.7c1.2,0.2,2.3,0.3,3.5,0.3c8.1,0,15.4-4.8,18.7-12h104.5c1.4,0,2.5-1.1,2.5-2.5v-47
		l11.2-2.8c0.6-0.2,1.2-0.6,1.5-1.1C275,139,275.1,138.4,275,137.7z M261.9,138.4v-23.1c0-1.4-1.1-2.5-2.5-2.5h-58.1h-4.4h-4.4H177
		c0-1.3,1-2.7,3.5-3.4c3.2-0.8,5.5-0.1,6.5,0.2l1.7,0.5l0.8-6.9l-1.2-0.4c-2.1-0.6-4.3-0.8-6.8-0.4l-0.8-3.1l-0.4-1.5l-0.2-0.7
		l-3.5,0.9l-1.5,0.4l-1.3,0.3l1.4,5.7c-3.6,1.9-5.7,5-6,8.5h-9.1c-3-2.9-6.7-4.9-10.9-5.6l-32.5-5.5L185,84.9l1.5-0.4l1.5-0.4
		l1.6-0.4l1.4-0.4l1.5-0.4l60.2-14.8l0.7,2.7l0.6,2.6l0.6,2.6l14.8,60.3L261.9,138.4z M256.9,144.7V188H156.4c0,0,0,0,0,0l3.3-19.4
		l0.5-2.7l0.5-2.7l4.4-25.7l0.6-3.4l0.6-3.3c0-0.1,0-0.1,0-0.2c0.7-4.5,0-9-2.1-12.9h6.2h1.7h1.8h2.7h3.8h4.8h2.7h1.8h4.4h63v21.9
		v2.6V144.7z M149.2,193c-3.3,5-9.3,7.9-15.6,6.8l-40-6.8l-1-0.2l-74.6-12.7c-8.1-1.4-13.7-8.9-12.8-16.9L91,177.8l2.5,0.4l2.5,0.4
		l54.8,9.3l0.6,0.1c-0.2,0.8-0.5,1.6-0.8,2.4C150.1,191.4,149.7,192.2,149.2,193z M21.3,95c3.4-2.4,7.5-3.3,11.6-2.6l55.7,9.5
		l3.4,0.6l0.4,0.1l3,0.5l3.1,0.5l6.2,1.1l43.8,7.5c0.9,0.1,1.7,0.4,2.5,0.7c1.6,0.6,3.2,1.4,4.5,2.5c0.9,0.7,1.7,1.6,2.5,2.5
		c0.2,0.2,0.4,0.4,0.5,0.7c2.4,3.4,3.3,7.5,2.6,11.6l-0.8,4.6l-0.6,3.4l-0.6,3.4l-3.9,23.1l-0.5,2.7l-0.5,2.7l-0.8,4.4l-10.2-1.7
		l-6.2-1.1l-6.2-1.1l-19.8-3.4l-2.7-0.5l-2.7-0.5l-10-1.7l-2.5-0.4l-2.5-0.4L7.4,149.3L15,105C15.7,100.9,17.9,97.4,21.3,95z
		 M91.2,96.8L224,6l39.7,58l-5.9,4l-0.8-3.3c-0.2-0.6-0.6-1.2-1.1-1.5c-0.6-0.3-1.2-0.4-1.9-0.3l-64,15.7c-3.8-4.1-9-3.7-13.3-2.8
		c-5.4,1.1-6.7,0.7-7.7-0.7c-0.9-1.3-0.9-3.3,1.8-5.2c2.7-1.9,5.1-2,6.1-2.1l1.8-0.1l-1.6-6.7l-1.3,0.1c-2.2,0.2-4.3,0.8-6.5,2
		l-3.1-4.5l-5.3,3.6l3.3,4.8c-3.5,4-4,9-1.2,13.1c1.5,2.2,3.4,3.3,5.5,3.8l-64.1,15.7l-13-2.2L91.2,96.8z"/>
	<path d="M187.5,156.6c-1.4-4.4-5.4-6.6-9-8c-5.1-2.1-5.9-3.2-5.9-4.9c0-1.6,1.1-3.3,4.4-3.3c3.3,0,5.3,1.2,6.2,1.7l1.3,0.7l0.2,0.1
		l0.8-2.1l0.9-2.5l0.3-0.8l0.4-1.1l-0.2-0.1l-0.9-0.5c0,0,0,0,0,0c-0.7-0.4-1.4-0.7-2.2-1c-1.3-0.5-2.7-0.8-4.2-1v-0.4v-5.1h-1.2
		H174h-0.8v0.6v3v2.3c-5.1,1.3-8.4,5.2-8.4,10.1c0,6.2,5.1,9,10.1,11c2.8,1.1,4.2,2.2,4.8,3.3c0.4,0.7,0.5,1.3,0.5,1.9
		c0,0.2,0,0.4-0.1,0.5c-0.3,2-2.2,3.4-5,3.4c-1.7,0-3.4-0.3-4.9-1c-0.8-0.3-1.6-0.7-2.2-1.2l-0.9-0.6l-0.7-0.4l-0.2,0.7l-1,2.8
		l-1,2.8l-0.1,0.3l0.9,0.7c1.9,1.4,4.9,2.3,7.8,2.6v5.7h6.5v-6c4.7-1.2,8-4.7,8.6-9c0.1-0.5,0.1-1,0.1-1.6c0-0.3,0-0.7,0-1
		C187.9,158.2,187.7,157.4,187.5,156.6z"/>
	<path d="M26.7,112l64.3,11l2.5,0.4l2.1,0.4l0.4,0.1l2.3,0.4l2.7,0.5l0.8,0.1c0.1,0,0.3,0,0.4,0c0.6,0,1.2-0.3,1.7-0.7
		c0.4-0.4,0.7-0.8,0.8-1.4c0.2-1.4-0.7-2.7-2-2.9l-1.9-0.3l-1.1-0.2l-2.7-0.5l-1-0.2l-1.7-0.3l-0.8-0.1l-2.5-0.4L27.5,107
		c-1.4-0.2-2.7,0.7-2.9,2C24.4,110.4,25.3,111.7,26.7,112z"/>
	<path d="M24.2,126.8L91,138.2l2.5,0.4l2.5,0.4l3.5,0.6l2.7,0.5l2.7,0.5l11.6,2l1.2,0.2c0.1,0,0.3,0,0.4,0c0.5,0,0.9-0.1,1.3-0.4
		c0.6-0.4,1-1,1.2-1.7c0.1-0.4,0-0.8-0.1-1.2c-0.1-0.5-0.4-0.9-0.8-1.2c-0.3-0.3-0.7-0.4-1.1-0.5l-2.5-0.4l-3.4-0.6l-9-1.5l-2.7-0.5
		l-2.7-0.5L96,134l-2.5-0.4l-2.5-0.4l-66-11.2c-1.4-0.2-2.7,0.7-2.9,2C21.9,125.3,22.8,126.6,24.2,126.8z"/>
	<path d="M21.7,141.2l50.2,8.6c0.1,0,0.3,0,0.4,0c1.2,0,2.3-0.9,2.5-2.1c0.2-1.4-0.7-2.7-2-2.9l-50.2-8.6c-1.4-0.2-2.7,0.7-2.9,2
		C19.4,139.7,20.3,141,21.7,141.2z"/>
</g>
</svg>
