<?xml version="1.0" encoding="utf-8"?>
<!-- Generator: Adobe Illustrator 24.0.0, SVG Export Plug-In . SVG Version: 6.00 Build 0)  -->
<svg version="1.1" id="Layer_1" xmlns="http://www.w3.org/2000/svg" xmlns:xlink="http://www.w3.org/1999/xlink" x="0px" y="0px"
	 viewBox="0 0 245 205" style="enable-background:new 0 0 245 205;" xml:space="preserve">
<g>
	<path d="M99.7,174.4c-8.4,0-15.3,6.9-15.3,15.3S91.3,205,99.7,205s15.3-6.9,15.3-15.3S108.1,174.4,99.7,174.4z M99.7,200
		c-5.7,0-10.3-4.6-10.3-10.3s4.6-10.3,10.3-10.3S110,184,110,189.7S105.4,200,99.7,200z"/>
	<path d="M148.2,174.4c-8.4,0-15.3,6.9-15.3,15.3s6.9,15.3,15.3,15.3s15.3-6.9,15.3-15.3S156.6,174.4,148.2,174.4z M148.2,200
		c-5.7,0-10.3-4.6-10.3-10.3s4.6-10.3,10.3-10.3s10.3,4.6,10.3,10.3S153.9,200,148.2,200z"/>
	<path d="M242.5,34.2h-31.1c-1,0-2,0.6-2.3,1.6l-15.1,39.5h-62.6c0.4-3,0.7-6.1,0.7-9.3C132.1,29.6,102.5,0,66.1,0S0,29.6,0,66.1
		c0,36.4,29.6,66.1,66.1,66.1c2.4,0,4.9-0.1,7.2-0.4l10.2,34.1c0.3,1.1,1.3,1.8,2.4,1.8h78.5c1.1,0,2-0.7,2.4-1.7l31.4-87.2l1.7-4.4
		l13.4-35.1h26.5h2.8c1.4,0,2.5-1.1,2.5-2.5S243.9,34.2,242.5,34.2z M87.8,162.6l-7.3-24.2h90.8l-8.7,24.2H87.8z M66.1,127.1
		C32.4,127.1,5,99.7,5,66.1C5,32.4,32.4,5,66.1,5s61.1,27.4,61.1,61.1c0,3.1-0.2,6.2-0.7,9.3c-0.1,0.8-0.3,1.7-0.4,2.5
		c-0.2,0.8-0.4,1.7-0.6,2.5c-2.1,8.8-6.2,16.9-11.7,23.8c-0.7,0.9-1.4,1.7-2.1,2.5c-0.8,0.9-1.5,1.7-2.3,2.5
		c-8.7,8.7-19.9,14.8-32.5,17c-0.8,0.1-1.7,0.3-2.5,0.4c-0.8,0.1-1.7,0.2-2.5,0.3C69.9,127,68,127.1,66.1,127.1z M120,104.1
		c5-7,8.6-15.1,10.5-23.8h61.6l-8.6,23.8H120z M116.1,109.1h65.7l-8.7,24.2H79l-0.7-2.4C93.3,128.2,106.5,120.3,116.1,109.1z"/>
	<path d="M85.2,45.9c0-8.9-6.2-17.9-20.1-17.9c-6.2,0-12.8,1.9-16.8,4.7l-0.9,0.7l3.8,10l1.6-1.2c2.5-1.9,6.6-3.1,10.3-3.1
		c5.9,0.1,9.1,3,9.1,8.1c0,4.6-2.7,8.7-7.4,14.3c-4.2,5.1-6.6,10.2-7.2,15.4c-0.1,0.5-0.1,1.1-0.1,1.6c0,1.1,0,2.2,0.1,3.3l0.3,4.3
		h1.8h2.6h2.6h4.6l-0.2-4.5c0-0.4,0-0.8,0-1.2c0-0.8,0.1-1.7,0.2-2.5c0.1-0.8,0.3-1.7,0.5-2.5c0.9-3,2.6-5.9,5.3-9.1
		C80.9,59.6,85.2,53.9,85.2,45.9z"/>
	<path d="M66.7,92.3c-0.9-0.4-1.8-0.6-2.8-0.6c-0.2,0-0.3,0-0.5,0c-0.7,0-1.4,0.1-2,0.2c-3.6,0.9-6.1,4.1-6.1,8.3
		c0,4.8,3.5,8.4,8.1,8.4c1,0,2-0.2,2.9-0.5c0.3-0.1,0.6-0.2,0.9-0.4c0.5-0.2,0.9-0.5,1.4-0.9c0.8-0.6,1.4-1.4,1.9-2.3
		c0.1-0.1,0.1-0.2,0.2-0.4c0.6-1.2,0.9-2.5,0.9-4C71.5,96.5,69.6,93.5,66.7,92.3z"/>
</g>
</svg>
