<?xml version="1.0" encoding="utf-8"?>
<!-- Generator: Adobe Illustrator 24.0.0, SVG Export Plug-In . SVG Version: 6.00 Build 0)  -->
<svg version="1.1" id="Layer_1" xmlns="http://www.w3.org/2000/svg" xmlns:xlink="http://www.w3.org/1999/xlink" x="0px" y="0px"
	 viewBox="0 0 124.8 125" style="enable-background:new 0 0 124.8 125;" xml:space="preserve">
<style type="text/css">
	.st0{fill:none;}
</style>
<g>
	<path class="st0" d="M103.2,82.3c-2-2-4.7-3.2-7.6-3.2c-2.9,0-5.6,1.1-7.6,3.2l-3.4,3.4C83,87.2,80.9,88,78.5,88c0,0,0,0,0,0
		c-6.5,0-15.4-5.5-25.7-15.8C39.7,59.1,37,50.9,37,46.3c0-2.4,0.8-4.5,2.3-6l3.4-3.4c1.9-1.9,3-4.7,3-7.6s-1.1-5.7-3-7.6L29.2,8.2
		c-2-2-4.7-3.2-7.6-3.2C18.7,5,16,6.1,14,8.2l-3.4,3.4C6.9,15.2,5,20.6,5,27.1c0,17.1,12.5,40.3,32.5,60.4
		c20,20.1,43.1,32.5,60.2,32.5c0,0,0,0,0,0c6.6,0,11.8-1.9,15.5-5.6l3.4-3.4c2-2,3.2-4.8,3.2-7.6c0-2.9-1.1-5.6-3.2-7.6L103.2,82.3z
		"/>
	<path d="M118.3,28.2c0-0.7-0.3-1.3-0.7-1.8l-22-22c-1-1-2.6-1-3.5,0L75.5,21l-11-11c-0.7-0.7-1.8-0.9-2.7-0.5
		c-0.9,0.4-1.5,1.3-1.6,2.3l-0.5,48c0,0.7,0.3,1.3,0.7,1.8c0.5,0.5,1.1,0.7,1.8,0.7c0,0,0,0,0,0l48-0.5c1,0,1.9-0.6,2.3-1.6
		c0.4-0.9,0.2-2-0.5-2.7l-11-11l16.6-16.6C118.1,29.5,118.3,28.8,118.3,28.2z M95.7,44.7c-1,1-1,2.6,0,3.5l8.5,8.5l-39.5,0.4
		l0.4-39.5l8.5,8.5c0.5,0.5,1.1,0.7,1.8,0.7s1.3-0.3,1.8-0.7L93.8,9.7l18.5,18.5L95.7,44.7z"/>
	<path d="M120.2,92.2l-13.5-13.5c-3-3-6.9-4.6-11.2-4.6c-4.2,0-8.2,1.6-11.2,4.6L81,82.1c-0.6,0.6-1.4,0.9-2.6,0.9c0,0,0,0,0,0
		c-2.4,0-9.2-1.4-22.2-14.3C43.4,55.7,42,48.7,42,46.3c0-1.4,0.5-2.1,0.9-2.5l3.4-3.4c2.9-2.9,4.5-6.9,4.5-11.2
		c0-4.2-1.6-8.3-4.5-11.2L32.7,4.6c-3-3-6.9-4.6-11.2-4.6c-4.2,0-8.2,1.7-11.1,4.6L7.1,8C2.4,12.6,0,19.2,0,27.1C0,45.5,13,70,34,91
		c20.9,21,45.4,34,63.8,34c0,0,0,0,0,0c7.9,0,14.5-2.4,19.1-7.1l3.4-3.4c3-3,4.6-7,4.6-11.2C124.8,99.2,123.1,95.2,120.2,92.2z
		 M116.6,111.1l-3.4,3.4c-3.7,3.7-8.9,5.6-15.5,5.6c0,0,0,0,0,0c-17.1,0-40.2-12.5-60.2-32.5C17.5,67.4,5,44.3,5,27.1
		c0-6.5,1.9-11.9,5.6-15.6L14,8.2c2-2,4.7-3.2,7.6-3.2c2.9,0,5.6,1.1,7.6,3.2l13.5,13.5c1.9,1.9,3,4.7,3,7.6s-1.1,5.7-3,7.6
		l-3.4,3.4c-1.6,1.6-2.3,3.6-2.3,6c0,4.6,2.7,12.8,15.8,25.9C63.1,82.5,72,88,78.4,88c0,0,0,0,0,0c2.5,0,4.6-0.8,6.1-2.3l3.4-3.4
		c2-2,4.7-3.2,7.6-3.2c2.9,0,5.6,1.1,7.6,3.2l13.4,13.5c2,2,3.2,4.8,3.2,7.6C119.8,106.3,118.7,109,116.6,111.1z"/>
</g>
</svg>
