<?xml version="1.0" encoding="utf-8"?>
<!-- Generator: Adobe Illustrator 24.0.0, SVG Export Plug-In . SVG Version: 6.00 Build 0)  -->
<svg version="1.1" id="Layer_1" xmlns="http://www.w3.org/2000/svg" xmlns:xlink="http://www.w3.org/1999/xlink" x="0px" y="0px"
	 viewBox="0 0 154 126" style="enable-background:new 0 0 154 126;" xml:space="preserve">
<g>
	<path d="M123.1,62.2l-3.6,0c0,0,0,0,0,0c-0.5,0-1,0-1.5-0.1l8,47.4c0.5,2.9-0.3,5.8-2.2,8c-1.9,2.2-4.6,3.5-7.5,3.5H37.7
		c-2.9,0-5.6-1.3-7.5-3.5c-1.9-2.2-2.7-5.1-2.2-8L36,62c-0.5,0-1,0.1-1.4,0.1c0,0,0,0,0,0l-3.6,0l-7.9,46.6
		c-0.7,4.3,0.5,8.7,3.3,12.1c2.8,3.3,7,5.3,11.3,5.3h78.5c4.4,0,8.5-1.9,11.3-5.3s4-7.7,3.3-12.1L123.1,62.2z"/>
	<path d="M145.5,21C132.6,8.1,106.3,0,77,0c0,0-0.1,0-0.1,0C47.5,0,21.3,8,8.4,20.9C2.9,26.4,0,32.7,0,39.2l0,4.7
		C0,48.1,1.7,52,4.6,55c3,3,6.9,4.6,11.1,4.6l15.7,0l3.2,0c0,0,0,0,0,0c0.6,0,1.2,0,1.9-0.1c3.5-0.4,6.7-2,9.2-4.5
		c3-3,4.6-6.9,4.6-11.1l0-4.7c0-0.8,0.4-1.6,1.2-2.4c1.6-1.6,7.4-5.5,25.5-5.5c0,0,0.1,0,0.1,0c18.1,0,24,3.9,25.7,5.6
		c1,1,1.1,1.8,1.1,2.3l0,4.7c0,4,1.7,8,4.7,11c2.5,2.5,5.7,4.1,9.1,4.5c0.6,0.1,1.3,0.1,1.9,0.1c0,0,0,0,0,0l3.2,0l15.7,0
		c0,0,0,0,0.1,0c4.2,0,8.1-1.6,11-4.6c3-3,4.6-6.9,4.6-11.1v-4.7C154,32.8,151,26.5,145.5,21z M149,44.1c0,2.8-1.1,5.5-3.1,7.5
		c-2,2-4.7,3.1-7.5,3.1c0,0,0,0,0,0l-16.5,0l-2.3,0c0,0,0,0,0,0c-0.9,0-1.9-0.2-2.8-0.4c-1.7-0.5-3.3-1.5-4.6-2.8
		c-2-2-3.2-4.8-3.2-7.5l0-4.7c0-2.2-0.9-4.2-2.6-5.9c-3.2-3.2-10.9-7-29.2-7.1c0,0-0.1,0-0.1,0c-14.4,0-24.4,2.4-29,6.9
		c-1.7,1.7-2.7,3.8-2.7,5.9l0,4.7c0,2.8-1.1,5.5-3.1,7.5c-1.3,1.3-3,2.3-4.8,2.8c-0.9,0.2-1.8,0.4-2.7,0.4c0,0,0,0,0,0l-2.4,0
		l-16.5,0c-2.9,0-5.5-1.1-7.6-3.1c-2-2-3.1-4.7-3.1-7.6l0-4.7C5,34,7.3,29,12,24.4C23.9,12.4,48.8,5,76.8,5c0,0,0.1,0,0.1,0
		c28.1,0,53,7.5,65,19.5c4.6,4.6,7,9.7,7,14.8V44.1z"/>
	<path d="M59,70.6h6.1c0.7,0,1.2-0.5,1.2-1.2v-6.1c0-0.7-0.5-1.2-1.2-1.2H59c-0.7,0-1.2,0.5-1.2,1.2v6.1C57.8,70,58.3,70.6,59,70.6z
		"/>
	<path d="M73.9,70.6h6.1c0.7,0,1.2-0.5,1.2-1.2v-6.1c0-0.7-0.5-1.2-1.2-1.2h-6.1c-0.7,0-1.2,0.5-1.2,1.2v6.1
		C72.7,70,73.3,70.6,73.9,70.6z"/>
	<path d="M88.8,70.6H95c0.7,0,1.2-0.5,1.2-1.2v-6.1c0-0.7-0.5-1.2-1.2-1.2h-6.1c-0.7,0-1.2,0.5-1.2,1.2v6.1
		C87.7,70,88.2,70.6,88.8,70.6z"/>
	<path d="M57.8,83.3c0,0.7,0.5,1.2,1.2,1.2h6.1c0.7,0,1.2-0.5,1.2-1.2v-6.1c0-0.7-0.5-1.2-1.2-1.2H59c-0.7,0-1.2,0.5-1.2,1.2V83.3z"
		/>
	<path d="M72.7,83.3c0,0.7,0.5,1.2,1.2,1.2h6.1c0.7,0,1.2-0.5,1.2-1.2v-6.1c0-0.7-0.5-1.2-1.2-1.2h-6.1c-0.7,0-1.2,0.5-1.2,1.2V83.3
		z"/>
	<path d="M87.7,83.3c0,0.7,0.5,1.2,1.2,1.2H95c0.7,0,1.2-0.5,1.2-1.2v-6.1c0-0.7-0.5-1.2-1.2-1.2h-6.1c-0.7,0-1.2,0.5-1.2,1.2V83.3z
		"/>
	<path d="M57.8,97.3c0,0.7,0.5,1.2,1.2,1.2h6.1c0.7,0,1.2-0.5,1.2-1.2v-6.1c0-0.7-0.5-1.2-1.2-1.2H59c-0.7,0-1.2,0.5-1.2,1.2V97.3z"
		/>
	<path d="M72.7,97.3c0,0.7,0.5,1.2,1.2,1.2h6.1c0.7,0,1.2-0.5,1.2-1.2v-6.1c0-0.7-0.5-1.2-1.2-1.2h-6.1c-0.7,0-1.2,0.5-1.2,1.2V97.3
		z"/>
	<path d="M72.7,110.2c0,0.7,0.5,1.2,1.2,1.2h6.1c0.7,0,1.2-0.5,1.2-1.2v-6.1c0-0.7-0.5-1.2-1.2-1.2h-6.1c-0.7,0-1.2,0.5-1.2,1.2
		V110.2z"/>
	<path d="M87.7,97.3c0,0.7,0.5,1.2,1.2,1.2H95c0.7,0,1.2-0.5,1.2-1.2v-6.1c0-0.7-0.5-1.2-1.2-1.2h-6.1c-0.7,0-1.2,0.5-1.2,1.2V97.3z
		"/>
</g>
</svg>
