<?xml version="1.0" encoding="utf-8"?>
<!-- Generator: Adobe Illustrator 24.0.0, SVG Export Plug-In . SVG Version: 6.00 Build 0)  -->
<svg version="1.1" id="Layer_1" xmlns="http://www.w3.org/2000/svg" xmlns:xlink="http://www.w3.org/1999/xlink" x="0px" y="0px"
	 viewBox="0 0 105.9 100.7" style="enable-background:new 0 0 105.9 100.7;" xml:space="preserve">
<style type="text/css">
	.st0{fill:#FFFFFF;}
</style>
<g>
	<g>
		<g>
			<polygon class="st0" points="67.6,35.4 100.5,40.2 76.7,63.4 82.3,96.1 52.9,80.6 23.5,96.1 29.1,63.4 5.4,40.2 38.2,35.4 
				52.9,5.6 			"/>
		</g>
		<g>
			<path d="M85.6,100.7L52.9,83.5l-32.7,17.2l6.2-36.4L0,38.5l36.6-5.3L52.9,0l16.4,33.1l36.6,5.3L79.4,64.2L85.6,100.7z M52.9,77.8
				L79,91.5l-5-29l21.1-20.6L66,37.7l-13-26.4l-13,26.4l-29.1,4.2l21.1,20.6l-5,29L52.9,77.8z"/>
		</g>
	</g>
	<g>
		<g>
			<path d="M42.7,63.9c0-3.8,2.3-6.5,6-8.1l0-0.1c-3.4-1.6-4.8-4.2-4.8-6.8c0-4.8,4.1-8.1,9.4-8.1c5.9,0,8.8,3.7,8.8,7.5
				c0,2.6-1.3,5.3-5,7.1v0.1c3.8,1.5,6.1,4.2,6.1,7.9c0,5.3-4.5,8.8-10.3,8.8C46.5,72.1,42.7,68.3,42.7,63.9z M59,63.7
				c0-3.7-2.6-5.5-6.7-6.6c-3.6,1-5.5,3.4-5.5,6.3c-0.1,3.1,2.2,5.8,6.1,5.8C56.6,69.1,59,66.8,59,63.7z M47.7,48.5
				c0,3,2.3,4.7,5.8,5.6c2.6-0.9,4.6-2.8,4.6-5.5c0-2.4-1.4-5-5.1-5C49.6,43.6,47.7,45.9,47.7,48.5z"/>
		</g>
	</g>
</g>
</svg>
