<?xml version="1.0" encoding="utf-8"?>
<!-- Generator: Adobe Illustrator 24.0.0, SVG Export Plug-In . SVG Version: 6.00 Build 0)  -->
<svg version="1.1" id="Layer_1" xmlns="http://www.w3.org/2000/svg" xmlns:xlink="http://www.w3.org/1999/xlink" x="0px" y="0px"
	 viewBox="0 0 105.9 100.7" style="enable-background:new 0 0 105.9 100.7;" xml:space="preserve">
<style type="text/css">
	.st0{fill:#FFFFFF;}
</style>
<g>
	<g>
		<g>
			<polygon class="st0" points="67.6,35.4 100.5,40.2 76.7,63.4 82.3,96.1 52.9,80.6 23.5,96.1 29.1,63.4 5.4,40.2 38.2,35.4 
				52.9,5.6 			"/>
		</g>
		<g>
			<path d="M85.6,100.7L52.9,83.5l-32.7,17.2l6.2-36.4L0,38.5l36.6-5.3L52.9,0l16.4,33.1l36.6,5.3L79.4,64.2L85.6,100.7z M10.7,41.9
				l21.1,20.6l-5,29l26.1-13.7L79,91.5l-5-29l21.1-20.6L66,37.7l-13-26.4l-13,26.4L10.7,41.9z"/>
		</g>
	</g>
	<g>
		<g>
			<path d="M60.4,44.1c-0.8,0-1.9,0-3.1,0.2c-6.5,1.1-9.9,5.8-10.6,10.8h0.1c1.4-1.9,4-3.5,7.3-3.5c5.4,0,9.2,3.9,9.2,9.8
				c0,5.6-3.8,10.7-10.1,10.7c-6.5,0-10.8-5-10.8-12.9c0-6,2.2-10.7,5.1-13.7c2.5-2.5,5.9-4,9.7-4.5c1.2-0.2,2.2-0.2,3-0.2V44.1z
				 M59.2,61.6c0-4.3-2.5-7-6.3-7c-2.5,0-4.8,1.5-5.9,3.7c-0.3,0.5-0.5,1.1-0.5,1.8c0.1,5,2.4,8.7,6.7,8.7
				C56.8,68.9,59.2,66,59.2,61.6z"/>
		</g>
	</g>
</g>
</svg>
