<?xml version="1.0" encoding="utf-8"?>
<!-- Generator: Adobe Illustrator 24.0.0, SVG Export Plug-In . SVG Version: 6.00 Build 0)  -->
<svg version="1.1" id="Layer_1" xmlns="http://www.w3.org/2000/svg" xmlns:xlink="http://www.w3.org/1999/xlink" x="0px" y="0px"
	 viewBox="0 0 105.9 100.7" style="enable-background:new 0 0 105.9 100.7;" xml:space="preserve">
<style type="text/css">
	.st0{fill:#FFFFFF;}
</style>
<g>
	<g>
		<g>
			<polygon class="st0" points="67.6,35.4 100.5,40.2 76.7,63.4 82.3,96.1 52.9,80.6 23.5,96.1 29.1,63.4 5.4,40.2 38.2,35.4 
				52.9,5.6 			"/>
		</g>
		<g>
			<path d="M85.6,100.7L52.9,83.5l-32.7,17.2l6.2-36.4L0,38.5l36.6-5.3L52.9,0l16.4,33.1l36.6,5.3L79.4,64.2L85.6,100.7z M52.9,77.8
				L79,91.5l-5-29l21.1-20.6L66,37.7l-13-26.4l-13,26.4l-29.1,4.2l21.1,20.6l-5,29L52.9,77.8z"/>
		</g>
	</g>
	<g>
		<g>
			<path d="M55.8,71.6v-8.3H41.6v-2.7l13.6-19.4h4.4v18.9h4.3v3.2h-4.3v8.3H55.8z M55.8,60.1V50c0-1.6,0-3.2,0.1-4.8h-0.1
				c-0.9,1.8-1.7,3.1-2.5,4.5L45.8,60v0.1H55.8z"/>
		</g>
	</g>
</g>
</svg>
