<?xml version="1.0" encoding="utf-8"?>
<!-- Generator: Adobe Illustrator 24.0.0, SVG Export Plug-In . SVG Version: 6.00 Build 0)  -->
<svg version="1.1" id="Layer_1" xmlns="http://www.w3.org/2000/svg" xmlns:xlink="http://www.w3.org/1999/xlink" x="0px" y="0px"
	 viewBox="0 0 105.9 100.7" style="enable-background:new 0 0 105.9 100.7;" xml:space="preserve">
<style type="text/css">
	.st0{fill:#FFFFFF;}
</style>
<g>
	<g>
		<g>
			<polygon class="st0" points="67.6,35.4 100.5,40.2 76.7,63.4 82.3,96.1 52.9,80.6 23.5,96.1 29.1,63.4 5.4,40.2 38.2,35.4 
				52.9,5.6 			"/>
		</g>
		<g>
			<path d="M85.6,100.7L52.9,83.5l-32.7,17.2l6.2-36.4L0,38.5l36.6-5.3L52.9,0l16.4,33.1l36.6,5.3L79.4,64.2L85.6,100.7z M52.9,77.8
				L79,91.5l-5-29l21.1-20.6L66,37.7l-13-26.4l-13,26.4l-29.1,4.2l21.1,20.6l-5,29L52.9,77.8z"/>
		</g>
	</g>
	<g>
		<g>
			<path d="M44,66.9c1.2,0.7,3.9,1.9,6.7,1.9c5.3,0,6.9-3.4,6.9-5.9c0-4.3-3.9-6.1-7.9-6.1h-2.3v-3.1h2.3c3,0,6.8-1.5,6.8-5.1
				c0-2.4-1.5-4.6-5.3-4.6c-2.4,0-4.8,1.1-6.1,2l-1.1-3c1.6-1.2,4.7-2.3,7.9-2.3c6,0,8.7,3.6,8.7,7.2c0,3.1-1.9,5.8-5.6,7.2v0.1
				c3.7,0.7,6.8,3.6,6.8,7.8c0,4.9-3.8,9.1-11.1,9.1c-3.4,0-6.4-1.1-7.9-2.1L44,66.9z"/>
		</g>
	</g>
</g>
</svg>
