<?xml version="1.0" encoding="utf-8"?>
<!-- Generator: Adobe Illustrator 24.0.0, SVG Export Plug-In . SVG Version: 6.00 Build 0)  -->
<svg version="1.1" id="Layer_1" xmlns="http://www.w3.org/2000/svg" xmlns:xlink="http://www.w3.org/1999/xlink" x="0px" y="0px"
	 viewBox="0 0 105.9 100.7" style="enable-background:new 0 0 105.9 100.7;" xml:space="preserve">
<style type="text/css">
	.st0{fill:#FFFFFF;}
</style>
<g>
	<g>
		<g>
			<polygon class="st0" points="67.6,35.4 100.5,40.2 76.7,63.4 82.3,96.1 52.9,80.6 23.5,96.1 29.1,63.4 5.4,40.2 38.2,35.4 
				52.9,5.6 			"/>
		</g>
		<g>
			<path d="M85.6,100.7L52.9,83.5l-32.7,17.2l6.2-36.4L0,38.5l36.6-5.3L52.9,0l16.4,33.1l36.6,5.3L79.4,64.2L85.6,100.7z M10.7,41.9
				l21.1,20.6l-5,29l26.1-13.7L79,91.5l-5-29l21.1-20.6L66,37.7l-13-26.4l-13,26.4L10.7,41.9z"/>
		</g>
	</g>
	<g>
		<g>
			<path d="M36.6,45L36.6,45l-5.4,2.9l-0.8-3.1l6.6-3.6h3.5v30.4h-4V45z"/>
		</g>
		<g>
			<path d="M71.8,56.1c0,10.3-3.8,16-10.6,16c-5.9,0-10-5.6-10-15.6c0-10.2,4.4-15.8,10.6-15.8C68.2,40.7,71.8,46.4,71.8,56.1z
				 M55.3,56.5c0,7.9,2.4,12.4,6.2,12.4c4.2,0,6.2-4.9,6.2-12.7c0-7.5-1.9-12.4-6.2-12.4C57.9,43.9,55.3,48.3,55.3,56.5z"/>
		</g>
	</g>
</g>
</svg>
