<?xml version="1.0" encoding="utf-8"?>
<!-- Generator: Adobe Illustrator 24.0.0, SVG Export Plug-In . SVG Version: 6.00 Build 0)  -->
<svg version="1.1" id="Layer_1" xmlns="http://www.w3.org/2000/svg" xmlns:xlink="http://www.w3.org/1999/xlink" x="0px" y="0px"
	 viewBox="0 0 105.9 100.7" style="enable-background:new 0 0 105.9 100.7;" xml:space="preserve">
<style type="text/css">
	.st0{fill:#FFFFFF;}
</style>
<g>
	<g>
		<g>
			<polygon class="st0" points="67.6,35.4 100.5,40.2 76.7,63.4 82.3,96.1 52.9,80.6 23.5,96.1 29.1,63.4 5.4,40.2 38.2,35.4 
				52.9,5.6 			"/>
		</g>
		<g>
			<path d="M85.6,100.7L52.9,83.5l-32.7,17.2l6.2-36.4L0,38.5l36.6-5.3L52.9,0l16.4,33.1l36.6,5.3L79.4,64.2L85.6,100.7z M52.9,77.8
				L79,91.5l-5-29l21.1-20.6L66,37.7l-13-26.4l-13,26.4l-29.1,4.2l21.1,20.6l-5,29L52.9,77.8z"/>
		</g>
	</g>
	<g>
		<g>
			<path d="M45.4,68.7c0.9,0.1,1.9,0,3.3-0.1c2.4-0.3,4.6-1.3,6.4-2.9c2-1.8,3.5-4.5,4-8.1H59c-1.7,2.1-4.1,3.3-7.2,3.3
				c-5.5,0-9-4.1-9-9.3c0-5.7,4.2-10.8,10.4-10.8c6.2,0,10,5,10,12.8c0,6.7-2.2,11.4-5.2,14.3c-2.3,2.3-5.6,3.7-8.8,4.1
				c-1.5,0.2-2.8,0.3-3.8,0.2V68.7z M46.9,51.2c0,3.8,2.3,6.4,5.8,6.4c2.8,0,4.9-1.4,6-3.2c0.2-0.4,0.4-0.8,0.4-1.5
				c0-5.2-1.9-9.2-6.2-9.2C49.4,43.8,46.9,46.9,46.9,51.2z"/>
		</g>
	</g>
</g>
</svg>
