<?xml version="1.0" encoding="utf-8"?>
<!-- Generator: Adobe Illustrator 24.0.0, SVG Export Plug-In . SVG Version: 6.00 Build 0)  -->
<svg version="1.1" id="Layer_1" xmlns="http://www.w3.org/2000/svg" xmlns:xlink="http://www.w3.org/1999/xlink" x="0px" y="0px"
	 viewBox="0 0 206.1 205" style="enable-background:new 0 0 206.1 205;" xml:space="preserve">
<g>
	<path d="M205.6,89.3l-13.4-16.8l1-21.5c0-1-0.5-1.9-1.3-2.3l-19.1-9.9l-7.9-20c-0.4-0.9-1.2-1.5-2.2-1.6l-21.5-1.3L125.8,0.7
		c-0.7-0.7-1.7-0.9-2.6-0.6l-20.1,7.6L82.9,0.2C82-0.2,81,0,80.3,0.7L65,15.8l-21.5,1.3c-1,0.1-1.8,0.7-2.2,1.6l-7.8,20l-19.1,9.9
		C13.5,49.1,13,50,13,51l1,21.5L0.5,89.3c-0.6,0.8-0.7,1.8-0.3,2.7l9.6,19.2L4.5,132c-0.2,0.9,0.1,1.9,0.8,2.6l16.6,13.7l3.5,21.2
		c0.2,1,0.9,1.7,1.8,2l20.7,5.7l11.8,18c0.5,0.8,1.5,1.2,2.5,1.1l21.3-3.2l18.1,11.6c0.4,0.3,0.9,0.4,1.3,0.4s0.9-0.1,1.3-0.4
		l18.1-11.6l21.3,3.2c1,0.1,1.9-0.3,2.5-1.1l11.8-18l20.7-5.7c0.9-0.3,1.6-1,1.8-2l3.5-21.2l16.6-13.7c0.8-0.6,1.1-1.6,0.8-2.6
		l-5.4-20.8l9.6-19.2C206.3,91.1,206.2,90,205.6,89.3z M191.3,109.8c-0.3,0.5-0.3,1.2-0.2,1.7l5.3,20.2L180.3,145
		c-0.5,0.4-0.8,0.9-0.9,1.5l-3.4,20.6l-20.1,5.5c-0.6,0.2-1.1,0.5-1.4,1L143,191l-20.6-3.1c-0.6-0.1-1.2,0-1.7,0.4l-17.6,11.2
		l-17.6-11.2c-0.4-0.3-0.9-0.4-1.3-0.4c-0.1,0-0.2,0-0.4,0L63.1,191l-11.5-17.4c-0.3-0.5-0.8-0.9-1.4-1l-20.1-5.5l-3.4-20.6
		c-0.1-0.6-0.4-1.1-0.9-1.5L9.7,131.7l5.3-20.2c0.2-0.6,0.1-1.2-0.2-1.8L5.5,91.1l13-16.3c0.4-0.5,0.6-1.1,0.5-1.7l-0.9-20.8
		l18.5-9.6c0.5-0.3,1-0.7,1.2-1.3L45.4,22l20.8-1.2c0.6,0,1.2-0.3,1.6-0.7L82.6,5.4l19.5,7.3c0.6,0.2,1.2,0.2,1.8,0l19.5-7.3
		L138.3,20c0.4,0.4,1,0.7,1.6,0.7l20.8,1.2l7.6,19.4c0.2,0.6,0.6,1,1.2,1.3l18.5,9.6l-0.9,20.8c0,0.6,0.2,1.2,0.5,1.7l13,16.3
		L191.3,109.8z"/>
	<path d="M143.4,68.2c-1.8-1.4-4-2-6.3-1.7c-2.2,0.3-4.3,1.4-5.6,3.2l-36.7,47.7L73.7,97.8c-3.4-3.2-8.8-3-12,0.4
		c-1.5,1.7-2.4,3.8-2.3,6.1c0.1,2.3,1,4.4,2.7,5.9l28,26c1.6,1.5,3.6,2.3,5.8,2.3c0.2,0,0.5,0,0.7,0c2.4-0.2,4.6-1.4,6-3.3
		l42.4-55.1c1.4-1.8,2-4,1.7-6.3C146.3,71.6,145.2,69.6,143.4,68.2z"/>
</g>
</svg>
